<svg id="Layer_1" data-name="Layer 1" xmlns="http://www.w3.org/2000/svg" width="3186.57" height="4100.85" viewBox="0 0 3186.57 4100.85"><defs><style>.cls-1{fill:#009870}.cls-2{fill:#ff7bac}</style></defs><title>background-02</title><path class="cls-1" d="M1672.48 350.39c-81.18-77.08-321.55 111.84-149.83 202.71 56.91 30.11 116.93 15.82 179.79 24.66 67.87 9.54 125.16 48.54 172.7 98.5 130.77 137.41 66.45 244.7 44.17 401.31-22 154.57 54.64 263.75 210.15 281 168.34 18.66 269.66-62.9 314.44-220 40.88-143.36-50.29-243.68-67.61-378.94-26.73-209 106.33-169.5 253.1-115.54 130.32 47.9 352 37.42 346.62-157.48-3.93-141.36-218.06-315.38-337.32-369.28-189.48-85.63-265.1 114.46-426.82 155.54-125 31.75-205-111.24-329.62-104.39-79.77 4.38-83.33 39.11-97.39 106.1-11.12 52.93-35.77 130.39-112.38 75.79"/><path class="cls-2" d="M2168 2457.28c35.11-36.79 81.39-72 79.26-126.8-1.82-46.52-37.88-82.2-85.39-83.63-93.67-2.81-164.74 110.4-243.7 144.94-118.93 52-229.5-14.29-344.06-57.35-114-42.84-257.31-64.58-347.33 33.82-53 58-71.65 139.79-35.44 212.47 65.17 130.82 238.59 124.09 358.06 166.65 60.09 21.41 145.85 66 79 134.22-43.12 44-160.8 38.83-175.48 110-29.78 144.35 201.14 116.88 267.6 86.38 134.33-61.66 136-253.35 290.75-267.1 85-7.56 257.14-31.68 193.91-159.24-41.15-83-61.29-107.61-35.59-198.07"/><path class="cls-1" d="M240.27 1139.86c-150.86-6.23-260 169.85-204.47 301.27 33.34 79 124.86 143.31 142.37 224.75 10.79 50.18-16 75.48-33.9 119.52-26.75 66-43 151-27.49 222 28.22 128.6 218.54 223.29 304.71 91.11 42.34-64.95 20.16-353.95 170.75-268.4C655.08 1865.8 668.77 1972.53 715 2027c53.65 63.19 142.08 101.31 223.18 65.21 157.76-70.19 85.92-273.34-.31-365.09-78.38-83.41-198.35-123.64-312-121.4-135.84 2.68-240.9-8.2-269.12-169.44-11.48-65.6-17.08-146-26.42-218.88-9.46-73.82-80-69.32-90.08-77.52"/><path class="cls-2" d="M1024.45 61c-128.76-89.56-342.92 46.08-419.87 160.74-92.32 137.56-24 321.82 85.49 427.1 69.52 66.85 139.6 99.66 188.67 186 36.07 63.44 58.48 145.58 75.67 218.12 15.89 67.06 14.77 171.17 80.32 209.75 100.05 58.91 169.66-41.2 199-118 79.91-209.26-23.91-389.07-100.64-577.35-37.43-91.84-53.29-194.21-66.36-287.88-9.79-70.16 28.18-169.55-42.26-218.53"/><path class="cls-1" d="M1537.38 1455.29c-227.59 61.53-414.84 591.69 93.71 544.26 197.72-18.45 246.34-213.23 195.18-388.6-44.86-153.76-158.21-186-288.89-155.65"/><path class="cls-2" d="M2062.09 3426.4c-252.17-37.43-284.68 395.91 4.55 361.75 247.16-29.18 155.5-298.77-4.55-361.75"/><path class="cls-1" d="M2711.42 2718c14.58-1.24 19.91-95.63 33.25-132.22 19.64-53.88 47.34-96.83 101-119.09 112.47-46.65 193.31 46.53 189.54 154.84-4.24 121.85-91.59 211.8-193.24 266.84-107.48 58.19-253.19 63.58-315.4 180.13-81.28 152.29-210.34 227.59-357 104.21-141.67-119.2-81.22-340.39 121-339.85 94 .25 180.87 174.08 264.84 45.48 27.6-42.27 21.84-117.19 58.24-153 19.73-19.38 32-20.25 57.16-22.39 17.36-1.48 28.4 6 36.19 14.2"/><path class="cls-2" d="M2153.16 1552.07c-61-57.9-241.54 84-112.55 152.27 42.75 22.62 87.84 11.89 135.06 18.53 51 7.17 94 36.46 129.73 74 98.23 103.22 49.91 183.82 33.18 301.46-16.52 116.11 41 198.13 157.86 211.07 126.45 14 202.57-47.25 236.2-165.23 30.71-107.69-37.78-183-50.79-284.66-20.08-157 79.88-127.33 190.13-86.79 97.9 36 264.45 28.11 260.38-118.3-3-106.19-163.81-236.91-253.39-277.4-142.34-64.32-199.15 86-320.62 116.84-93.87 23.85-154-83.56-247.61-78.42-59.92 3.29-62.6 29.38-73.16 79.7-8.35 39.76-26.87 97.95-84.42 56.93"/><path class="cls-1" d="M516.11 2764.59c-39.32 58.16-30.78 169.2-8.35 232.92 41.88 119 104.17 183.82 234.38 185.39 50.4.61 105.56-14.16 154.59-1.29 88.29 23.19 136 122.53 177.36 195.11 56.84 99.79 101.7 229.28 190.07 305.39 67.58 58.21 200.88 105.55 282.37 47.44 152.45-108.7 45.82-323.64-89.26-384.93-77.26-35.05-165.95-41.66-236.58-91.48-51-35.95-70.59-101.9-117.47-141.53-83.66-70.72-190-69.64-286.4-103.29-43.09-15-90.88-40.74-107-86.87-12.56-35.92 1.59-75.31-20.88-108.27-26.58-39-145.75-87.92-172.81-48.59"/><path class="cls-2" d="M371.17 3179.06c-92.15-3.07-156.27-21.36-240.5 47C70.49 3274.94 28.5 3364.38 22 3440.84c-15.11 178.86 156.7 359.29 330.64 374C504 3827.59 694.62 3704 676.35 3534.12c-14.27-132.7-143.27-257.78-247.69-329.57-29.35-20.19-37.91-18.28-57.49-25.49"/><path class="cls-1" d="M2501.38 3943.73c-63.83-68.85-66.56-117.34-76.85-182.4-6.37-40.23-50.28-197.67 27.19-162.16 61.23 28.06 68 132.91 95.5 185.11 40.89 77.61 140 69.41 204.67 18.11 61.73-48.94 106.37-155 111.38-231.85 4.85-74.39-19.09-146.62-14.84-220.79 3.24-56.74 36-197.73 123-143.36 68.49 42.83 73.67 217.53 66.68 285.84-18.76 183.22-95.69 438.41-273 525.1-98.8 48.3-200-5-263.65-73.6"/></svg>