<svg id="Layer_1" data-name="Layer 1" xmlns="http://www.w3.org/2000/svg" viewBox="0 0 1428 1837.72" preserveAspectRatio="none"><defs><style>.cls-1{fill:#009870}.cls-2{fill:#ff7bac}</style></defs><title>background</title><path class="cls-1" d="M755.39 173.53c-36.09-34.27-143 49.73-66.62 90.13 25.3 13.39 52 7 79.94 11 30.18 4.24 55.65 21.58 76.79 43.8 58.15 61.1 29.55 108.81 19.64 178.44-9.78 68.73 24.29 117.28 93.44 124.94 74.85 8.3 119.9-28 139.81-97.8 18.18-63.74-22.36-108.35-30.06-168.49-11.89-92.91 47.28-75.37 112.54-51.37 57.95 21.3 156.53 16.64 154.12-70-1.75-62.86-97-140.23-150-164.2-84.25-38.07-117.88 50.89-189.78 69.16-55.56 14.12-91.17-49.46-146.56-46.42-35.47 1.95-37.05 17.39-43.3 47.18-4.94 23.53-15.9 58-50 33.7"/><path class="cls-2" d="M975.71 1110.35c15.61-16.36 36.19-32 35.24-56.38-.81-20.68-16.84-36.55-38-37.19-41.65-1.25-73.25 49.09-108.36 64.44-52.88 23.13-102-6.36-153-25.5-50.67-19-114.41-28.71-154.44 15-23.58 25.78-31.86 62.16-15.76 94.47 29 58.17 106.09 55.18 159.21 74.1 26.72 9.52 64.85 29.35 35.14 59.68-19.17 19.57-71.5 17.26-78 48.9-13.24 64.18 89.43 52 119 38.41 59.73-27.42 60.46-112.65 129.28-118.76 37.78-3.36 114.34-14.09 86.22-70.81-18.3-36.91-27.25-47.85-15.83-88.07"/><path class="cls-1" d="M118.56 524.56C51.49 521.79 3 600.09 27.65 658.52c14.82 35.11 55.52 63.72 63.3 99.94 4.8 22.31-7.13 33.56-15.07 53.14-11.88 29.34-19.13 67.16-12.22 98.72 12.53 57.17 97.17 99.28 135.48 40.51 18.83-28.88 9-157.38 75.92-119.35 27.94 15.87 34 63.33 54.58 87.54 23.85 28.1 63.17 45 99.24 29 70.15-31.21 38.2-121.54-.14-162.34-34.85-37.09-88.2-55-138.71-54-60.4 1.19-107.12-3.64-119.66-75.34-5.1-29.17-7.59-64.9-11.75-97.33-4.2-32.83-35.56-30.82-40.05-34.47"/><path class="cls-2" d="M467.25 44.84C410 5 314.77 65.35 280.55 116.33c-41 61.16-10.67 143.1 38 189.91 30.91 29.72 62.07 44.31 83.89 82.7 16 28.21 26 64.73 33.65 97 7.07 29.82 6.57 76.11 35.71 93.26 44.49 26.19 75.44-18.32 88.48-52.46 35.53-93-10.63-173-44.75-256.72-16.64-40.84-23.7-86.36-29.51-128-4.35-31.2 12.53-75.39-18.79-97.17"/><path class="cls-1" d="M695.32 664.82c-101.2 27.36-184.46 263.09 41.67 242C824.9 898.62 846.52 812 823.77 734c-19.94-68.37-70.35-82.69-128.46-69.21"/><path class="cls-2" d="M928.63 1541.27c-112.13-16.64-126.58 176 2 160.85 109.9-13 69.14-132.85-2-160.85"/><path class="cls-1" d="M1213 1231.27c11.4-7.25 13.21-47.52 19.14-63.79 8.73-24 21-43.06 44.91-53 50-20.74 86 20.69 84.28 68.85-1.89 54.18-40.72 94.18-85.92 118.65-47.79 25.87-112.58 28.27-140.24 80.1-36.14 67.72-93.53 101.2-158.73 46.34-63-53-36.11-151.35 53.81-151.12 41.79.11 80.42 77.41 117.76 20.22 12.27-18.79 9.71-52.11 25.9-68 8.77-8.62 14.24-9 25.42-10 7.72-.66 16.83 21.23 16.09 6.31"/><path class="cls-2" d="M969.12 707.85c-27.11-25.75-107.4 37.36-50 67.71 19 10.06 39.06 5.29 60.05 8.24 22.67 3.19 41.81 16.21 57.69 32.9 43.68 45.9 22.19 81.74 14.75 134-7.35 51.63 18.25 88.1 70.19 93.85 56.23 6.23 90.07-21 105-73.47 13.65-47.88-16.8-81.39-22.58-126.57-8.93-69.8 35.52-56.62 84.54-38.59 43.53 16 117.59 12.5 115.78-52.6-1.33-47.18-72.85-105.32-112.69-123.32-63.29-28.6-88.55 38.23-142.56 52-41.74 10.61-68.49-37.16-110.1-34.87-26.64 1.46-27.83 13.06-32.53 35.44-3.71 17.68-11.95 43.55-37.54 25.31"/><path class="cls-1" d="M241.21 1247c-17.48 25.86-13.69 75.23-3.71 103.57 18.62 52.9 46.32 81.74 104.21 82.43 22.41.27 46.94-6.3 68.74-.57 39.26 10.31 60.48 54.48 78.86 86.75 25.28 44.37 45.22 101.95 84.51 135.79 30 25.88 89.32 46.93 125.55 21.1 67.79-48.33 20.37-143.9-39.69-171.16-34.36-15.59-73.79-18.52-105.19-40.68-22.66-16-31.39-45.31-52.23-62.93-37.2-31.45-84.49-31-127.35-45.93-19.16-6.69-40.41-18.12-47.58-38.62-5.58-16 .71-33.48-9.29-48.14-11.82-17.33-64.81-39.09-76.84-21.61"/><path class="cls-2" d="M176.77 1431.29c-41-1.36-69.49-9.5-106.94 20.9-26.76 21.73-45.43 61.5-48.3 95.5-6.72 79.53 69.68 159.76 147 166.28 67.27 5.68 152-49.29 143.92-124.81-6.35-59-63.71-114.62-110.13-146.54-13.05-9-16.86-8.13-25.56-11.33"/><path class="cls-1" d="M1124 1771.3c-28.38-30.61-29.59-52.18-34.17-81.1-2.83-17.89-22.36-87.89 12.09-72.11 27.22 12.48 30.23 59.1 42.46 82.31 18.18 34.51 62.23 30.86 91 8.05 27.45-21.76 47.3-68.93 49.52-103.09 2.15-33.08-8.49-65.19-6.6-98.17 1.44-25.23 16-87.92 54.67-63.74 30.45 19 32.76 96.72 29.65 127.1-8.34 81.47-42.55 194.94-121.4 233.48-43.93 21.47-88.94-2.21-117.23-32.73"/></svg>