<svg xmlns="http://www.w3.org/2000/svg" width="232.55" height="364.58" viewBox="0 0 232.55 364.58"><defs><style>.cls-1{fill:#ffd923}.cls-1,.cls-3{stroke:#fff;stroke-miterlimit:10}.cls-2{fill:#fff}.cls-3{fill:#231f20}</style></defs><title>Asset 2 1</title><g id="Layer_2" data-name="Layer 2"><g id="Layer_1-2" data-name="Layer 1"><path class="cls-1" d="M13.95 235.47c-22.61 39.07 5.68 86 26.7 104.18C90.08 382.38 211.1 370.19 222.54 294c11.65-77.13-104.54-34.7-108.22-88.4-4.25-61.6 129.77-65.24 113.28-143.88-16-76.09-102.46-52.63-125.2 1C94.54 81.32 94.57 112 70.1 112c-16.92.1-26.22-33-49.59-25.64-37.86 12-11.74 58.12-4.23 80.46 12.31 36.63 13.1 51.4-2.33 68.65z"/><circle class="cls-2" cx="94.23" cy="56.5" r="37.37" transform="rotate(-42.56 94.234 56.5)"/><circle class="cls-2" cx="172.26" cy="139.96" r="37.37" transform="rotate(-42.56 172.263 139.954)"/><path class="cls-3" d="M220.66 169.06l-5.08-2.19q-18 16.73-27.84 19.64-24.72 7.33-41.57-11-21.58-23.51-14.49-45.13 4.25-12.89 23.43-31.92l6.1-1.34q-.33-7.05-6.21-13.46t-12.88-7.33l-1.86 6q-20.6 17.49-33.8 20.63-22.18 5.21-43.74-18.27-16.83-18.38-7.43-42.4 3.74-9.57 22-26.06L75.5 11 86.79.61q27.58 15.35 40.07 29T148.48 66q9.57 4 15 9.89T172 91.66q22 11 34.46 24.65t25.44 42.39zM111.48 31.62a31.66 31.66 0 0 0-8.19-7.37q-4.82-2.68-6-3.23a12.76 12.76 0 0 0-6.77-.16q-4.24 1.05-14.37 10.36a46.26 46.26 0 0 0-11.59 16.53q14.19-9 24.65-12.95a53 53 0 0 1 22.27-3.18zm77.41 84.3a31.75 31.75 0 0 0-8.19-7.38c-3.21-1.78-5.22-2.85-6-3.22a12.74 12.74 0 0 0-6.77-.16q-4.24 1-14.37 10.36A46.18 46.18 0 0 0 142 132.05q14.19-9 24.65-12.95a53 53 0 0 1 22.24-3.18z"/></g></g></svg>