<svg xmlns="http://www.w3.org/2000/svg" width="268.79" height="385.96" viewBox="0 0 268.79 385.96"><defs><style>.cls-1{fill:#009870}.cls-1,.cls-3{stroke:#fff;stroke-miterlimit:10}.cls-2{fill:#fff}.cls-3{fill:#231f20}</style></defs><title>Asset 2</title><g id="Layer_2" data-name="Layer 2"><g id="Layer_1-2" data-name="Layer 1"><path class="cls-1" d="M207.83 82.86c-3.53-25.29-6.34-53.44-32-70.94C138-13.92 82 6.28 67.41 50.48c-13.77 41.62 35 61.71 26.28 104.58-7.4 36.24-58.75 53.84-77.8 88.51C-10.6 291.86-9 384.76 70 385.45c61.83.53 45-84.94 79.53-110.9 37.08-27.88 33.62 40.5 51 59.28 35.34 38.27 71.59 8.75 67.44-33.41-4.55-46.1-24.93-88.75-27.61-135-1.94-33.53-29.36-54.42-32.53-82.56"/><circle class="cls-2" cx="91.88" cy="113.34" r="39.21" transform="rotate(-5.66 91.837 113.336)"/><circle class="cls-2" cx="211.07" cy="100.45" r="39.21" transform="translate(-8.88 21.3)"/><path class="cls-3" d="M266 78.18l-5 2.89q2.71 25.63-1.06 35.74-9.42 25.36-35.44 27.94-33.3 3.3-47-16.29-8.14-11.69-12-39.77l2.72-6Q162 78.56 153 79.46t-14.3 6.19l3.83 5.35q1.7 28.3-4 41.36-9.6 21.89-42.88 25.19-26 2.58-40.23-20.45-5.68-9.17-8-34.84l-5.51-1.84-1.59-16Q70.56 70.9 89.84 69T134 73.8q9.37-5.52 17.74-6.35t18.64 2.74q23.11-11.47 42.4-13.38t51.59 5.36zm-184.11 5a33.27 33.27 0 0 0-11.34 2.23q-5.28 2.36-6.51 3A13.39 13.39 0 0 0 59.62 94q-1.79 4.22-.36 18.59a48.59 48.59 0 0 0 6.59 20.1q1.38-17.59 4.67-28.84A55.65 55.65 0 0 1 81.88 83.2zm119.5-11.82A33.29 33.29 0 0 0 190 73.58q-5.28 2.36-6.5 3a13.37 13.37 0 0 0-4.4 5.58q-1.79 4.22-.36 18.59a48.51 48.51 0 0 0 6.59 20.11Q186.74 103.3 190 92a55.64 55.64 0 0 1 11.39-20.64z"/></g></g></svg>