<svg xmlns="http://www.w3.org/2000/svg" width="358.6" height="459.46" viewBox="0 0 358.6 459.46"><defs><style>.cls-1{fill:#231f20}</style></defs><title>Asset 1</title><g id="Layer_2" data-name="Layer 2"><path class="cls-1" d="M75.81 44.82L76.31 0l9.24.1 10.14 28.1L106.44.33l9.24.1-.5 44.82-8.18-.09.31-27.66L98.52 41l-6-.07-8.17-23.68L84 44.91zm99.68 16l.44-11-13.26-4.64-6.53 8.82-8.36-2.93 29-37.33 7.76 2.72-.65 47.25zM177 25.5l-9.56 13.13 8.84 3.1zm50.07 19.4l4.38-6.31 26.93 18.7L254 63.6l-10.09-7-21.19 30.49L216 82.4l21.15-30.5zm64.71 43.94L309.15 110l-5.94 4.87L291 100.08l-7.28 6 9.76 11.89-5.94 4.87-9.75-11.89-9.56 7.84 12.56 15.32-5.94 4.87-17.78-21.68zm28.06 92.92l-13.86 19-3.49-8.49 13.35-18.36-1.64-4-17.88 7.36-3.13-7.61 41.44-17.06 6.14 14.93c3.27 8 .45 14.39-6.65 17.32-5.52 2.28-10.8 1.23-14.3-3.08zm4.5-7.4c1.32 3.22 3.51 4.16 6.65 2.87s4-3.51 2.7-6.72l-3-7.38-9.4 3.87zm34.27 62.51l-44.42 5.93-1.09-8.16 44.42-5.93zm-48.05 67.74l11-1.19 2.64-13.79-9.77-5.16 1.67-8.7 41.19 23.16-1.58 8.07-46.83 6.3zm35.13-3.71l-14.4-7.53-1.76 9.2zm-12.6 66.24l-4.46 6.92L297.39 354l-10.18 15.81-6.46-4.16 14.64-22.73zm-94.49 72.71l-4.6 1.87-16.5-17.88.67 24.33-4.56 1.83-12.2-30 3.72-1.52 8.87 21.9-.32-22.13 2.62-1.07 15.22 16.06-8.89-21.84 3.72-1.52zm-63.66 18.49l-18.34 1.11-.23-3.87 14.32-.86-.56-9.28-11.59.7-.23-3.88 11.59-.7-.68-11.4-14.78.89-.23-3.87L173 426zm-55.87-2.86l-4.41-1.37-2.79-12.4-9.34 8.62-4.42-1.33 12.75-11.72-4.47-19.6 4.41 1.32 3.43 15.11 11.41-10.49L130 425l-14.82 13.6zm-53.7-24.41l-3.27-2.34 18.83-26.32 3.27 2.34zM37.22 368a13.07 13.07 0 0 1 8.34-.53 12.34 12.34 0 0 1 6.89 5.09 13.78 13.78 0 0 1 2.37 10.87c-.77 4-3.27 7.47-7.53 10.49s-8.4 4.21-12.39 3.62a13.76 13.76 0 0 1-9.46-5.85 12.38 12.38 0 0 1-2.44-8.24 13 13 0 0 1 3.24-7.67l3.19 2.5q-4.46 5.94-.78 11.14a9.48 9.48 0 0 0 7 4.19c2.85.27 6-.76 9.3-3.11s5.33-5 6-7.74a9.49 9.49 0 0 0-1.63-8q-3.69-5.2-10.76-3zM.31 333a13.47 13.47 0 0 1 2.31-10.88c2.3-3.32 6-5.47 11-6.5s9.29-.5 12.75 1.65a14 14 0 0 1 4.08 20c-2.34 3.32-6.05 5.48-11.08 6.51s-9.29.5-12.7-1.66A13.46 13.46 0 0 1 .31 333zm3.8-.78a9.43 9.43 0 0 0 4.69 6.56c2.5 1.4 5.77 1.71 9.76.9s6.87-2.38 8.63-4.65a9.45 9.45 0 0 0 1.74-7.87 9.28 9.28 0 0 0-4.68-6.51c-2.51-1.45-5.78-1.76-9.77-.95s-6.87 2.38-8.62 4.7a9.27 9.27 0 0 0-1.75 7.85zM52.54 230.6c3.11 4.54 3 9.73-.51 14a12.44 12.44 0 0 1-8.95 4.59c-3.65.27-7.35-1.15-11.14-4.28s-6-7-6.3-10.47a12.71 12.71 0 0 1 2.83-9.32c3.55-4.29 8.63-5.35 13.68-3.15L41 224.64c-4-1.84-7.72-1.18-10.51 2.2a9.11 9.11 0 0 0-2.11 7.78c.53 2.84 2.34 5.54 5.4 8.07s6.05 3.8 8.95 3.78a9.1 9.1 0 0 0 7.27-3.53c2.8-3.38 2.75-7.14.18-10.74zm15.21-35.84l13.55 26.63-2.48 1.26L65.27 196zm32.7-8.54l-.23-2.64 20.34-1.78.23 2.64-8.78.77 2.36 27.13-2.78.24-2.36-27.13zm55.5 21l-.4-19.1 2.91 1.45v15.79l12.62-9.48 2.91 1.45-15.52 11.14-5.8 11.6-2.49-1.25z" id="Layer_1-2" data-name="Layer 1"/></g></svg>