<svg id="Layer_1" data-name="Layer 1" xmlns="http://www.w3.org/2000/svg" width="386.21" height="178.34" viewBox="0 0 386.21 178.34"><defs><style>.cls-1{fill:none}.cls-2{clip-path:url(#clip-path)}.cls-3{fill:#ffd923}.cls-4{fill:#ff7bac}.cls-5{fill:#009870}.cls-6{fill:#00a77e}.cls-7{fill:#ffdc19}</style><clipPath id="clip-path"><path class="cls-1" d="M0 0h386.21v178.34H0z"/></clipPath></defs><title>header-logo</title><path d="M0 0h386.21v178.34H0z"/><g class="cls-2"><path class="cls-3" d="M5.95 229.61c-2.07 15.55 6.6 30.53 15 38.16 13.07 11.85 34.53 13.5 48.33 1.64 7.24-6.23 10.74-15.81 10.47-25.14-.29-9.72-6.82-17.61-7.26-27.43-.81-17.85 13.65-27.31 30.56-27.15 13.09.13 26.74 2.58 39.73 0 18.2-3.68 36.56-19 46.4-34.13 14.92-23 2.74-49.32-22.44-57.34-11.16-3.56-20-2.35-30.3 2.55s-23.16 15.21-35.68 11.06c-14-4.65-3.81-13.76 1.38-21.64 6.65-10.11 11-27.37 2.48-37.75-15.59-19-46.22-.12-53.15 17.7-11.48 29.53 23.89 64 3.32 91.63-10.71 14.36-32.33 17.93-40.92 33.83-5.06 9.38-6.49 23.34-7.92 34.07"/><path class="cls-4" d="M-7 167c8.77 10.87 30.46 4.63 39.91-3.25 11.33-9.45 10.09-26.91 3.37-38.64-4.27-7.45-9.44-12-11.48-20.61-1.5-6.32-1.36-13.9-1-20.54.32-6.13 3-15-1.62-19.93-7.08-7.54-15.53-.72-20 5.11C-9.83 85.06-5.44 103-3.59 121c.9 8.79-.3 17.93-1.52 26.26C-6 153.54-11.76 161.09-7 167"/><path class="cls-5" d="M164.92 50.79c-4.74 15.42-11.71 20-20.5 27.14-5.43 4.41-25.06 24.5-26.45 9.92-1.1-11.52 13.91-21.56 19.3-30.14 8-12.76-1.74-26.79-14.94-32-12.59-5-32.21-2.46-44.06 3.41-11.48 5.69-20.16 15.47-31.55 21.23C38 54.75 14.22 62 14.81 44.41c.47-13.87 26-29.69 36.76-34.53C80.43-3.11 125-13.65 153.16 5.25c15.69 10.53 16.49 30.17 11.76 45.54M144.13 269.73c10.18 6.88 29.61 5.39 40.76 1.46 20.82-7.33 32.16-18.23 32.44-41 .11-8.82-2.48-18.47-.23-27.05 4.06-15.45 21.44-23.8 34.14-31 17.46-9.95 40.12-17.79 53.44-33.26 10.18-11.83 18.47-35.15 8.3-49.41-19-26.68-56.63-8-67.36 15.62-6.13 13.52-7.29 29-16 41.4-6.29 8.92-17.83 12.35-24.76 20.55-12.37 14.64-12.18 33.25-18.07 50.12-2.63 7.54-7.13 15.9-15.2 18.72-6.28 2.2-13.18-.28-18.95 3.65-6.82 4.65-15.38 25.5-8.5 30.24"/><path class="cls-4" d="M199.85 108.31c0 7.35-1.33 15.66 4.37 21.17a12.47 12.47 0 0 0 17.28.22c10.08-9.06 6.21-28 11-39.49 7.25-17.31 25.43-21.41 41.71-28.35s33.36-18.93 33-38.21C307 12.31 300.73 1.9 289.69-2.09c-19.88-7.18-37.34 10.84-54.09 18.31-8.42 3.76-21.84 7.65-21.66-6.15.12-8.91 12.94-20.11 7.38-29C210-37 188.61-11.09 184.7-1.27c-7.9 19.86 11.07 40.07-3.75 57-8.13 9.27-23.73 29-4.39 36 12.59 4.57 17.15 5.14 23.49 17.16"/><path class="cls-3" d="M-9 86.83c-5-16.5 12.87-44.4 20.73-59.4 11-21 30.69-28.68 51-38.79 9-4.45 21.28-9.74 25.73-19.36 6.2-13.43-4-10.49-10.54-20.17-5.7-8.48 2.68-26.42-5.79-31.29-10.42-6-21.5 13.67-25 21.42-7.72 17.24-7.51 31.26-25 42.69C6.54-7.81-5.87.21-17 17.2c-12.12 18.57-30.58 65.66-1 79.54 6.72 2.19 10.94-3.49 9-9.92M285.53 273.88c-11 6.36-30.17 9.25-48.89-1.07-5.17-2.85-8.25-10.31-7.69-16.24.72-7.7 10.39-12.86 10.87-20.53.4-6.36-4.94-12.41-5.9-18.93a32.54 32.54 0 0 1 5.22-22.84c14-19.76 38.67-3.23 54.71-17.35C304 168 311.73 150.1 329.3 155.2c14.47 4.2 14 30 10.33 41.4A44.29 44.29 0 0 1 313 224.29c-9.29 3.48-13.72.91-13.27 11.56.62 14.57-.59 28.86-14.16 38"/><path class="cls-6" d="M332 248.5c-.8 19.38 21.82 33.4 38.7 26.27 10.14-4.28 18.41-16 28.87-18.29 6.45-1.39 9.7 2.06 15.36 4.35 8.48 3.44 19.4 5.53 28.52 3.53 16.52-3.62 28.69-28.07 11.71-39.15-8.34-5.44-45.47-2.59-34.48-21.94 4.59-8.07 18.3-9.83 25.29-15.77 8.12-6.89 13-18.25 8.38-28.67-9-20.27-35.12-11-46.9 0-10.72 10.07-15.88 25.48-15.6 40.08.34 17.45-1.05 30.95-21.77 34.57-8.43 1.48-18.75 2.19-28.12 3.39s-8.91 10.27-10 11.57"/><path class="cls-4" d="M391.21 56.74C397.08 49 378.1 30.61 372 46.18c-2 5.16-.16 10.11-.27 15.55-.12 5.87-2.92 11.16-6.78 15.73-10.61 12.59-20.63 8.27-34.52 8-13.7-.21-22.42 7.47-22.3 20.87.13 14.51 8.3 22.25 22.45 24.37 12.92 1.94 20.71-6.88 32.32-9.8 17.93-4.51 15.88 7.22 12.71 20.28-2.81 11.59.41 30.32 17.34 27.78 12.28-1.85 25.21-21.91 28.66-32.62 5.49-17-12.74-21.31-18-34.62-4.07-10.28 7.55-18.62 5.66-29.13C408 65.89 405 66 399 65.48c-4.73-.38-11.74-1.65-7.78-8.74"/><path class="cls-5" d="M369.45 3.56c-4.25-.44-12.58 9.18-17.24 12.05-6.86 4.22-13.65 6.54-21.5 4.31-16.45-4.66-17.24-22-7.38-33.57C334.41-26.7 351.87-29 367.86-26.2c16.91 3 33.43 15.06 50.43 7.64 22.22-9.69 43-6.74 48.4 19.63C471.91 26.54 446 45.64 423.75 28 413.42 19.74 419-7 398.54-.13c-6.72 2.25-12.62 11-19.74 11.77-3.86.42-5.29-.56-8.25-2.52-2-1.35 0-8.56-2.75-4.72"/></g><path d="M22.27 17.85h341.67v142.64H22.27z"/><path class="cls-7" d="M60.67 77.15v-25l-3-5.51H69l10.65 22.8h.1l8.77-22.84h12.87l-4.51 3.51v28l4.51 4H84.06l3.66-4V57.87h-.1L76.95 84.81 64.08 57.87H64v19.28l6.46 5H55.67zM106.79 77.15L118 46.6l5-2L136 79l2.2 3.21h-15.73L127 79l-3.11-8-11.47.05-2.15 6.06 4.86 5h-11.79zM123 68l-4.76-13.17-4.74 13.26zM138 46l3.26.65H166l3.31-.65v14.17l-8-10.62h-3.05V78.1l6.36 4.06h-21.93l6.36-4.06V49.56H146l-8 10.57zM177.45 78.15V50.61l-4-4H201v11.51l-7.51-8.51h-6.86v13.17l7.41-8v18l-7.41-8v14.37h6.91l10.42-10.47-2.55 13.47h-27.97zM211.7 78.1V50.61l-4-4h18.43c7.61 0 11.87 3.56 11.87 9.31 0 4.41-4 7.21-10.92 8.16v.1l3.66 1.15 8.11 13.47 3.66 3.36h-11.88l-9.77-17v13l4.71 4.06h-17.88zm10.62-14.82c4.06 0 6.51-1.7 6.51-6.66 0-5.46-3.05-6.51-6-6.51l-2 .05v13.12zM248.45 78.15V50.61l-4.51-4h18.43l-4.51 4v27.54l4.51 4h-18.43zM267.83 77.15L279 46.6l5-2 13 34.35 2.2 3.21h-15.7l4.56-3.16-3.06-8-11.47.05-2.15 6.06 4.86 5h-11.87zM284 68l-4.76-13.17-4.71 13.22zM306.08 78.15V50.61l-4-4h19.08l-5.91 4v28.54h5.26l10.27-9-2.25 12h-26.45z"/><g><path class="cls-7" d="M73.34 127.23l11.22-30.55 5-2 13 34.35 2.2 3.21H89l4.56-3.15-3.11-8-11.45.08-2.15 6.06 4.86 5H69.89zm16.18-9.11l-4.76-13.17-4.71 13.22zM111.6 128.18v-27.5l-4-4H126c7.61 0 11.87 3.56 11.87 9.31 0 4.41-4 7.21-10.92 8.16v.1l3.66 1.15 8.11 13.47 3.66 3.36h-11.85l-9.77-17v13l4.71 4.06h-17.88zm10.62-14.82c4.06 0 6.51-1.7 6.51-6.66 0-5.46-3.05-6.51-6-6.51l-2 .05v13.12zM144.2 96l3.25.65h24.74l3.3-.65v14.22l-8-10.62h-3.05v28.54l6.36 4.06h-21.9l6.36-4.06V99.63h-3.06l-8 10.57zM196.67 128.23v-27.55l-4-4h27.54v11.52l-7.51-8.51h-6.86v13.67l7.91-8v18l-7.91-8v12.87l5.26 4h-18.43zM225.76 127.23L237 96.68l5-2L255 129l2.2 3.21h-15.76l4.56-3.15-3.11-8-11.47.05-2.15 6.06 4.86 5h-11.82zm16.18-9.11l-4.76-13.17-4.71 13.22zM264.12 128.23v-27.55l-4.51-4H278l-4.51 4v27.54l4.51 4h-18.39zM285.85 128.18v-27.5l-4-4h18.43c7.61 0 11.87 3.56 11.87 9.31 0 4.41-4 7.21-10.92 8.16v.1l3.66 1.15 8.11 13.48 3.66 3.36h-11.88l-9.77-17v13l4.71 4.06h-17.87zm10.62-14.82c4.06 0 6.51-1.7 6.51-6.66 0-5.46-3.05-6.51-6-6.51l-2 .05v13.12z"/></g></svg>