<?xml version="1.0" standalone="no"?>
<!DOCTYPE svg PUBLIC "-//W3C//DTD SVG 1.1//EN" "http://www.w3.org/Graphics/SVG/1.1/DTD/svg11.dtd" >
<svg>
<metadata>
Created by FontForge 20120731 at Fri Jul  8 02:23:13 2016
 By ,,,
(c)2012 Optimo.
</metadata>
<defs>
<font id="Stanley-Bold" horiz-adv-x="778" >
  <font-face 
    font-family="Stanley"
    font-weight="700"
    font-stretch="normal"
    units-per-em="1000"
    panose-1="2 5 8 6 8 4 6 2 0 3"
    ascent="800"
    descent="-200"
    x-height="490"
    cap-height="710"
    bbox="-62 -243 1101 923"
    underline-thickness="40"
    underline-position="-100"
    unicode-range="U+000D-FB04"
  />
<missing-glyph horiz-adv-x="365" 
d="M33 0v667h266v-667h-266zM66 33h200v600h-200v-600z" />
    <glyph glyph-name="uniFB01" unicode="fi" horiz-adv-x="625" 
d="M29 0v38h32l28 32v372l-60 15v33h58v6q0 22 4 46.5t19.5 58.5t40.5 59.5t72 44t109 18.5q108 0 157 -27t49 -67q0 -27 -14 -46h-119l-12 29q-26 63 -80 63q-50 0 -69.5 -38t-19.5 -124v-23h313v-420l30 -32h44v-38h-277v38h40l28 32v350l-25 27h-153v-377l30 -32h35v-38
h-260z" />
    <glyph glyph-name="uniFB02" unicode="fl" horiz-adv-x="626" 
d="M29 0v38h32l28 32v372l-60 15v33h58v6q0 112 67.5 169.5t161.5 57.5q44 0 78 -10l143 7v-650l30 -32h44v-38h-276v38h39l28 32v555q-36 49 -90 49q-42 0 -65 -24.5t-23 -71.5v-88h137v-43h-137v-377l30 -32h40v-38h-265z" />
    <glyph glyph-name="uniFB03" unicode="ffi" horiz-adv-x="938" 
d="M29 0v38h32l28 32v372l-60 15v33h58v6q0 82 62.5 143t166.5 61q87 0 151 -38q63 61 178 61q108 0 157 -27t49 -67q0 -27 -14 -46h-119l-12 29q-26 63 -80 63q-50 0 -69.5 -38t-19.5 -124v-23h313v-420l30 -32h44v-38h-277v38h40l28 32v350l-25 27h-153v-377l30 -32h40
v-38h-265v38h32l28 32v377h-178v-377l30 -32h40v-38h-265zM224 490h176v15q0 38 8 75q-13 30 -39.5 51t-59.5 21q-42 0 -63.5 -29.5t-21.5 -99.5v-33z" />
    <glyph glyph-name="uniFB04" unicode="ffl" horiz-adv-x="939" 
d="M29 0v38h32l28 32v372l-60 15v33h58v6q0 82 62.5 143t166.5 61q69 0 147 -38q62 61 166 61q44 0 78 -10l143 7v-650l30 -32h44v-38h-276v38h39l28 32v555q-36 49 -90 49q-40 0 -63.5 -24t-24.5 -68v-92h137v-43h-137v-377l30 -32h40v-38h-265v38h32l28 32v377h-178v-377
l30 -32h40v-38h-265zM224 490h176v18q0 35 8 72q-13 30 -39.5 51t-59.5 21q-42 0 -63.5 -29.5t-21.5 -99.5v-33z" />
    <glyph glyph-name=".notdef" horiz-adv-x="365" 
d="M33 0v667h266v-667h-266zM66 33h200v600h-200v-600z" />
    <glyph glyph-name=".null" horiz-adv-x="0" 
 />
    <glyph glyph-name="uni000D" unicode="&#xd;" horiz-adv-x="500" 
 />
    <glyph glyph-name="glyph3" horiz-adv-x="0" 
 />
    <glyph glyph-name="glyph3" horiz-adv-x="0" 
 />
    <glyph glyph-name="space" unicode=" " horiz-adv-x="244" 
 />
    <glyph glyph-name="exclam" unicode="!" horiz-adv-x="295" 
d="M79 55q0 29 19.5 48.5t48.5 19.5t48.5 -19.5t19.5 -48.5t-19.5 -48.5t-48.5 -19.5t-48.5 19.5t-19.5 48.5zM80 491v219h135v-219l-49 -293h-37z" />
    <glyph glyph-name="quotedbl" unicode="&#x22;" horiz-adv-x="352" 
d="M65 465v245h68v-245h-68zM219 465v245h68v-245h-68z" />
    <glyph glyph-name="numbersign" unicode="#" horiz-adv-x="590" 
d="M34 214l12 50h95l48 177h-94l12 49h96l59 220h60l-59 -220h139l59 220h60l-59 -220h94l-12 -49h-96l-48 -177h95l-12 -50h-96l-58 -214h-60l58 214h-139l-58 -214h-60l58 214h-94zM201 264h139l48 177h-139z" />
    <glyph glyph-name="dollar" unicode="$" horiz-adv-x="569" 
d="M58 532q0 72 54 126t145 63v39h63v-38q56 -4 122 -32l16 29h29v-250h-40l-8 25q-38 121 -119 163v-221q37 -17 59.5 -29.5t53 -35.5t48 -46.5t30 -60t12.5 -79.5q0 -85 -58 -139t-145 -58v-38h-63v40q-56 6 -132 38l-30 -37h-30v276h30l24 -49q55 -113 138 -153v219
q-35 17 -58.5 30t-52.5 35.5t-46.5 46.5t-29.5 59t-12 77zM160 583q0 -40 25 -66.5t72 -50.5v206q-49 -2 -73 -29.5t-24 -59.5zM320 50h5q106 0 106 84q0 39 -28 65t-83 55v-204z" />
    <glyph glyph-name="percent" unicode="%" horiz-adv-x="928" 
d="M35 511q0 96 45.5 154t129.5 58t129.5 -57.5t45.5 -154.5t-45.5 -154t-129.5 -57t-129.5 57.5t-45.5 153.5zM149 0l547 710h73l-543 -710h-77zM159 511q0 -164 51 -164q50 0 50 164q0 167 -51 167q-50 0 -50 -167zM543 198q0 96 45.5 154t129.5 58t129.5 -57.5
t45.5 -154.5t-45.5 -154t-129.5 -57t-129.5 57.5t-45.5 153.5zM667 198q0 -164 51 -164q50 0 50 164q0 167 -51 167q-50 0 -50 -167z" />
    <glyph glyph-name="ampersand" unicode="&#x26;" horiz-adv-x="723" 
d="M60 154q0 41 12 75t39 62.5t48.5 46t60.5 44.5q-85 118 -85 188q0 74 50 113.5t131 39.5q31 0 59 -5t57.5 -18t47.5 -40.5t18 -67.5q0 -25 -10.5 -48t-34 -45t-42.5 -36t-54 -37l130 -169q36 60 81 163l-40 32h-41v38h205v-28l-62 -34q-57 -135 -104 -221l106 -137
l64 -42v-28h-197l-59 81q-84 -94 -195 -94q-82 0 -133.5 46t-51.5 121zM191 201q0 -42 26.5 -68.5t66.5 -26.5q60 0 110 38l-144 196q-59 -62 -59 -139zM249 606q0 -11 3.5 -23.5t7.5 -21.5t13.5 -23.5t14.5 -21.5t19 -25t19 -24q48 55 48 124q0 85 -65 85q-60 0 -60 -70z
" />
    <glyph glyph-name="quotesingle" unicode="'" horiz-adv-x="199" 
d="M65 465v245h69v-245h-69z" />
    <glyph glyph-name="parenleft" unicode="(" horiz-adv-x="319" 
d="M34 248q0 149 67 286t192 207l16 -32q-83 -75 -128 -200.5t-45 -260.5q0 -286 173 -448l-15 -33q-119 64 -189.5 201.5t-70.5 279.5z" />
    <glyph glyph-name="parenright" unicode=")" horiz-adv-x="319" 
d="M10 -200q173 162 173 448q0 135 -45 260.5t-128 200.5l16 32q125 -70 192 -207t67 -286q0 -142 -70.5 -279.5t-189.5 -201.5z" />
    <glyph glyph-name="asterisk" unicode="*" horiz-adv-x="446" 
d="M42 592l59 52l97 -80l2 2l-45 117l68 40l68 -40l-45 -118l2 -2l98 80l59 -52l-17 -77l-126 5l-1 -3l106 -67l-32 -72l-78 -7l-34 122h-2l-32 -123l-79 9l-31 72l105 68l-1 3l-126 -7z" />
    <glyph glyph-name="plus" unicode="+" horiz-adv-x="498" 
d="M39 252v56h179v182h62v-182h179v-56h-179v-190h-62v190h-179z" />
    <glyph glyph-name="comma" unicode="," horiz-adv-x="242" 
d="M49 -120q33 13 58.5 42.5t25.5 64.5q-37 1 -59 20t-22 48t19 48.5t48 19.5q31 0 50.5 -22t19.5 -62q0 -60 -35.5 -108.5t-96.5 -71.5z" />
    <glyph glyph-name="hyphen" unicode="-" horiz-adv-x="342" 
d="M61 266v50h220v-50h-220z" />
    <glyph glyph-name="period" unicode="." horiz-adv-x="240" 
d="M52 55q0 29 19.5 48.5t48.5 19.5t48.5 -19.5t19.5 -48.5t-19.5 -48.5t-48.5 -19.5t-48.5 19.5t-19.5 48.5z" />
    <glyph glyph-name="slash" unicode="/" horiz-adv-x="448" 
d="M25 0l342 710h58l-342 -710h-58z" />
    <glyph glyph-name="zero" unicode="0" horiz-adv-x="620" 
d="M48 354q0 95 29 177.5t90 137t143 54.5q85 0 146.5 -54.5t88.5 -136t27 -178.5q0 -95 -29.5 -177t-90.5 -136t-142 -54t-142 54.5t-90.5 136.5t-29.5 176zM200 354q0 -57 5.5 -109.5t17.5 -101t34.5 -77.5t52.5 -29t52 29t34 77.5t17.5 101t5.5 109.5t-5.5 110
t-17.5 101.5t-34.5 78t-52.5 29.5t-52.5 -29t-34 -78t-17 -101.5t-5.5 -110.5z" />
    <glyph glyph-name="one" unicode="1" horiz-adv-x="391" 
d="M43 0v38h51l40 42v522l-87 -42v45l198 115h22v-640l40 -42h50v-38h-314z" />
    <glyph glyph-name="two" unicode="2" horiz-adv-x="569" 
d="M39 0v50q151 142 230 262.5t79 227.5q0 134 -74 134q-73 0 -73 -143v-41h-144q-6 10 -6 39q0 89 68 141.5t163 52.5t157.5 -48.5t62.5 -140.5q0 -28 -6 -55t-13 -48.5t-25 -47.5t-29 -42t-39.5 -42t-42 -38.5t-50 -40t-50.5 -37.5l-56 -40q-9 -7 -14 -10v-2h250l82 89h18
l-45 -220h-443z" />
    <glyph glyph-name="three" unicode="3" horiz-adv-x="543" 
d="M38 175l23 10q33 -40 69 -59t99 -19q65 0 101 45t36 111q0 133 -106 133q-52 0 -109 -32v55l161 158v2h-256l21 144h20l35 -13h350v-60l-260 -216v-2q27 12 67 12q98 0 150.5 -61t52.5 -144q0 -101 -68 -176.5t-179 -75.5q-77 0 -129 50t-78 138z" />
    <glyph glyph-name="four" unicode="4" horiz-adv-x="523" 
d="M15 196v27q69 86 120 179t71 145t59 163h160q-50 -120 -133.5 -229t-207.5 -233v-2h171v84l104 130h28v-214h101v-50h-101v-115l40 -43h50v-38h-317v38h54l41 43v115h-240z" />
    <glyph glyph-name="five" unicode="5" horiz-adv-x="549" 
d="M30 176l23 10q90 -79 179 -79q70 0 108 48.5t38 117.5q0 71 -32 111.5t-93 40.5q-89 0 -152 -99h-40l71 384h296l35 13h20l-30 -144h-280l-39 -145h2q56 42 138 42q109 0 169.5 -70.5t60.5 -166.5q0 -101 -68 -176.5t-179 -75.5q-79 0 -139.5 51.5t-87.5 137.5z" />
    <glyph glyph-name="six" unicode="6" horiz-adv-x="555" 
d="M43 244q0 56 20 118t61.5 129t120.5 129t184 103v-38q-74 -42 -137 -111.5t-92 -150.5h2q38 20 96 20q100 0 161.5 -60.5t61.5 -164.5q0 -99 -68.5 -165t-163.5 -66q-108 0 -177 75.5t-69 181.5zM192 244q0 -84 27.5 -144t72.5 -60q41 0 60 35t19 118q0 82 -25.5 139.5
t-72.5 57.5q-81 0 -81 -146z" />
    <glyph glyph-name="seven" unicode="7" horiz-adv-x="501" 
d="M27 489l44 234h20l35 -13h370v-50q-118 -143 -175.5 -319t-64.5 -341h-160q20 129 99 284.5t189 292.5v2h-265l-74 -90h-18z" />
    <glyph glyph-name="eight" unicode="8" horiz-adv-x="556" 
d="M47 152q0 59 43 114.5t103 84.5q-121 100 -121 209q0 76 58.5 119.5t149.5 43.5q88 0 146 -38.5t58 -99.5q0 -107 -140 -178q38 -29 61.5 -48.5t50.5 -48.5t40 -59.5t13 -64.5q0 -93 -69 -146t-173 -53q-93 0 -156.5 41.5t-63.5 123.5zM179 178q0 -63 35 -99t79 -36
q41 0 66.5 26.5t25.5 75.5q0 15 -4 28.5t-14 27.5t-18.5 24.5t-27 26t-28.5 23l-34 25.5t-33 25q-47 -72 -47 -147zM186 588q0 -40 33 -77t95 -82q42 50 42 134q0 55 -26 81t-62 26t-59 -20t-23 -62z" />
    <glyph glyph-name="nine" unicode="9" horiz-adv-x="555" 
d="M34 492q0 98 68.5 164.5t163.5 66.5q108 0 177 -75.5t69 -181.5q0 -56 -20 -118t-61.5 -129t-120.5 -129t-184 -103v38q73 40 136.5 110.5t92.5 151.5h-2q-38 -20 -96 -20q-100 0 -161.5 60.5t-61.5 164.5zM184 517q0 -82 25.5 -139.5t72.5 -57.5q81 0 81 146
q0 84 -27.5 144t-72.5 60q-41 0 -60 -35t-19 -118z" />
    <glyph glyph-name="colon" unicode=":" horiz-adv-x="258" 
d="M61 55q0 29 19.5 48.5t48.5 19.5t48.5 -19.5t19.5 -48.5t-19.5 -48.5t-48.5 -19.5t-48.5 19.5t-19.5 48.5zM61 435q0 28 19.5 48t48.5 20t48.5 -20t19.5 -48q0 -29 -19.5 -49t-48.5 -20t-48.5 20t-19.5 49z" />
    <glyph glyph-name="semicolon" unicode=";" horiz-adv-x="264" 
d="M61 -120q33 13 58.5 42.5t25.5 64.5q-37 1 -59 20t-22 48t19 48.5t48 19.5q31 0 50.5 -22t19.5 -62q0 -60 -35.5 -108.5t-96.5 -71.5zM63 435q0 28 19.5 48t48.5 20t48.5 -20t19.5 -48q0 -29 -19.5 -49t-48.5 -20t-48.5 20t-19.5 49z" />
    <glyph glyph-name="less" unicode="&#x3c;" horiz-adv-x="505" 
d="M32 251v49l419 231v-70l-346 -183l346 -187v-70z" />
    <glyph glyph-name="equal" unicode="=" horiz-adv-x="624" 
d="M66 142v56h492v-56h-492zM66 361v56h492v-56h-492z" />
    <glyph glyph-name="greater" unicode="&#x3e;" horiz-adv-x="505" 
d="M54 21v70l346 187l-346 183v70l419 -231v-49z" />
    <glyph glyph-name="question" unicode="?" horiz-adv-x="456" 
d="M37 591q0 42 33.5 73.5t75.5 45t82 13.5q196 0 196 -139q0 -45 -22.5 -81t-55 -63t-64.5 -56.5t-54.5 -74.5t-22.5 -102v-9h-34q-14 33 -14 75q0 46 20.5 93t44.5 80.5t44.5 77.5t20.5 85q0 31 -14.5 51t-45.5 20t-45.5 -20.5t-14.5 -50.5v-57h-124q-6 10 -6 39zM126 55
q0 29 19.5 48.5t48.5 19.5t48.5 -19.5t19.5 -48.5t-19.5 -48.5t-48.5 -19.5t-48.5 19.5t-19.5 48.5z" />
    <glyph glyph-name="at" unicode="@" horiz-adv-x="861" 
d="M52 235q0 159 111.5 269t266.5 110t267 -110t112 -269q0 -130 -84 -235h-244v65h-2q-36 -42 -69 -60t-75 -18q-52 0 -90 29t-38 98q0 74 60 119t158 58l52 6v86q0 71 -52 71q-23 0 -39.5 -18.5t-16.5 -47.5v-56h-128q-6 10 -6 39q0 42 33.5 73.5t75.5 45t82 13.5
q186 0 186 -143v-300l29 -32h59q70 98 70 207q0 141 -99 240t-240 99t-240 -99t-99 -240q0 -138 94 -235h-51q-83 102 -83 235zM346 134q0 -28 12.5 -47t32.5 -19q45 0 86 47v133l-22 -4q-51 -11 -80 -41t-29 -69z" />
    <glyph glyph-name="A" unicode="A" horiz-adv-x="714" 
d="M12 0v28l56 72l214 592l115 58h10l248 -670l54 -52v-28h-315v38h69l30 42l-52 151h-264l-43 -124l29 -69h85v-38h-236zM195 281h228l-113 328z" />
    <glyph glyph-name="B" unicode="B" horiz-adv-x="677" 
d="M32 0v38h61l39 42v550l-39 42h-61v38h335q240 0 240 -161q0 -130 -159 -162v-2q30 -2 58.5 -10.5t59 -26.5t49.5 -53t19 -83q0 -105 -80 -158.5t-214 -53.5h-308zM275 69q33 -19 87 -19q115 0 115 153q0 69 -35 104.5t-102 35.5h-65v-274zM275 393h65q61 0 89.5 42
t28.5 107q0 56 -29 87t-75 31q-53 0 -79 -16v-251z" />
    <glyph glyph-name="C" unicode="C" horiz-adv-x="705" 
d="M41 354q0 157 96 263t252 106q113 0 201 -41l25 37h30v-256h-40l-15 34q-77 174 -216 174q-84 0 -141 -76t-57 -197q0 -125 69 -210t178 -85q131 0 216 119l38 -14q-24 -59 -71 -115.5t-116 -85.5q-46 -20 -101 -20h-10q-153 0 -245.5 105.5t-92.5 261.5z" />
    <glyph glyph-name="D" unicode="D" horiz-adv-x="749" 
d="M32 0v38h61l39 42v550l-39 42h-61v38h319q179 0 267.5 -92.5t88.5 -254.5q0 -152 -107 -257.5t-251 -105.5h-317zM275 83q8 -6 24 -11q24 -11 65 -11q101 0 143 64t42 203q0 145 -54.5 238.5t-148.5 93.5q-29 0 -53 -8q-16 -7 -18 -8v-561z" />
    <glyph glyph-name="E" unicode="E" horiz-adv-x="665" 
d="M32 0v38h61l39 42v550l-39 42h-61v38h560v-210h-18l-112 160h-187v-263h78l92 150h18v-350h-18l-92 150h-78v-297h185l157 170h18l-45 -220h-558z" />
    <glyph glyph-name="F" unicode="F" horiz-adv-x="614" 
d="M32 0v38h61l39 42v550l-39 42h-61v38h560v-210h-18l-112 160h-187v-263h78l92 150h18v-350h-18l-92 150h-78v-267l37 -42h88v-38h-368z" />
    <glyph glyph-name="G" unicode="G" horiz-adv-x="734" 
d="M41 354q0 157 96 263t252 106q113 0 201 -41l25 37h30v-256h-40l-15 34q-77 174 -216 174q-84 0 -141 -76t-57 -197q0 -125 69 -210t178 -85q63 0 113 25v124l-37 44h-50v36h231v-341h-30l-61 84q-39 -39 -90 -64q-49 -24 -111 -24h-9q-153 0 -245.5 105.5t-92.5 261.5z
" />
    <glyph glyph-name="H" unicode="H" horiz-adv-x="815" 
d="M32 0v38h61l39 42v550l-39 42h-61v38h346v-38h-65l-38 -42v-227h265v227l-39 42h-64v38h346v-38h-62l-38 -42v-550l38 -42h62v-38h-346v38h64l39 42v273h-265v-273l38 -42h65v-38h-346z" />
    <glyph glyph-name="I" unicode="I" horiz-adv-x="412" 
d="M32 0v38h61l39 42v550l-39 42h-61v38h348v-38h-62l-38 -42v-550l38 -42h62v-38h-348z" />
    <glyph glyph-name="J" unicode="J" horiz-adv-x="496" 
d="M-4 74l130 37q34 -78 90 -78h18v597l-31 42h-105v38h379v-38h-61l-39 -42v-449q0 -94 -58.5 -144t-148.5 -50h-10q-54 0 -95 18q-45 21 -69 69z" />
    <glyph glyph-name="K" unicode="K" horiz-adv-x="708" 
d="M32 0v38h61l39 42v550l-39 42h-61v38h334v-38h-53l-38 -42v-245h2l194 184v103h-47v38h250v-28l-280 -259l328 -395v-28h-283v38h48v42l-210 258h-2v-258l38 -42h65v-38h-346z" />
    <glyph glyph-name="L" unicode="L" horiz-adv-x="611" 
d="M32 0v38h61l39 42v550l-39 42h-61v38h361v-40l-82 1l-36 -41v-580h155l157 170h18l-45 -220h-528z" />
    <glyph glyph-name="M" unicode="M" horiz-adv-x="969" 
d="M28 0v38h70l40 62v520l-30 52h-80v38h237l230 -509h2l213 509h231v-38h-90l-20 -32v-560l40 -42h70v-38h-346v38h52l41 42v445h-2l-223 -535h-24l-243 525h-2v-415l47 -62h82v-38h-295z" />
    <glyph glyph-name="N" unicode="N" horiz-adv-x="780" 
d="M23 0v38h69l41 63v485l-71 96v28h172l359 -475h2v375l-47 62h-71v38h284v-38h-67l-43 -62v-620h-55l-405 534h-2v-423l47 -63h71v-38h-284z" />
    <glyph glyph-name="O" unicode="O" 
d="M41 354q0 157 96 263t252 106q154 0 251 -106t97 -261q0 -157 -96 -263t-252 -106q-154 0 -251 106t-97 261zM195 427q0 -161 64.5 -269.5t169.5 -108.5q73 0 113.5 60t40.5 174q0 103 -26.5 189t-79 139.5t-121.5 53.5q-74 0 -117.5 -62.5t-43.5 -175.5z" />
    <glyph glyph-name="P" unicode="P" horiz-adv-x="629" 
d="M32 0v38h59l41 42v550l-41 42h-59v38h315q129 0 196 -42t67 -141q0 -90 -74.5 -149t-183.5 -59h-36v35h28q50 0 84 42.5t34 120.5q0 69 -33.5 101t-74.5 32q-43 0 -79 -17v-553l39 -42h90v-38h-372z" />
    <glyph glyph-name="Q" unicode="Q" 
d="M41 354q0 157 96 263t252 106q154 0 251 -106t97 -261q0 -138 -76 -238t-203 -124l269 -170v-19h-217l-140 183q-146 6 -237.5 111t-91.5 255zM195 427q0 -161 64.5 -269.5t169.5 -108.5q73 0 113.5 60t40.5 174q0 103 -26.5 189t-79 139.5t-121.5 53.5
q-74 0 -117.5 -62.5t-43.5 -175.5z" />
    <glyph glyph-name="R" unicode="R" horiz-adv-x="696" 
d="M32 0v38h60l40 43v549l-40 42h-60v38h358q113 0 175 -49.5t62 -136.5q0 -67 -59.5 -118t-161.5 -65v-2l81 -27l143 -252l67 -42v-18h-197l-151 268q-31 54 -68 54h-6v-241l40 -43h74v-38h-357zM275 373h74q130 0 130 137q0 75 -34.5 107.5t-85.5 32.5q-25 0 -57 -8
l-27 -8v-261z" />
    <glyph glyph-name="S" unicode="S" horiz-adv-x="567" 
d="M57 532q0 79 64.5 135t168.5 56q79 0 151 -33l16 29h29v-250h-40l-8 25q-27 82 -73 130t-105 48q-52 0 -76.5 -27.5t-24.5 -61.5q0 -39 27 -68.5t67 -47.5t87.5 -42t87.5 -50.5t67 -75.5t27 -114q0 -89 -63 -143.5t-155 -54.5q-16 0 -32 1.5t-28 2.5t-26.5 4.5t-22 5.5
t-21.5 7t-18 6.5t-17.5 7t-14.5 6.5l-30 -37h-30v276h30l24 -49q37 -77 91 -122.5t115 -45.5q106 0 106 84q0 32 -20.5 57.5t-53.5 43.5t-72.5 36t-79.5 40t-73 49.5t-53.5 71.5t-20.5 100z" />
    <glyph glyph-name="T" unicode="T" horiz-adv-x="675" 
d="M25 490v233h30l35 -13h494l36 13h30v-234h-28l-112 172h-101v-580l40 -43h87v-38h-397v38h86l41 43v580h-101l-112 -171h-28z" />
    <glyph glyph-name="U" unicode="U" horiz-adv-x="772" 
d="M12 672v38h357v-38h-69l-40 -42v-349q0 -120 33.5 -175.5t127.5 -55.5q183 0 183 242v318l-47 62h-74v38h277v-38h-59l-41 -62v-317q0 -65 -13 -118t-40.5 -96.5t-77 -67.5t-117.5 -24q-148 0 -224 66.5t-76 214.5v362l-41 42h-59z" />
    <glyph glyph-name="V" unicode="V" horiz-adv-x="668" 
d="M4 682v28h310v-38h-79l-33 -42l186 -441h2l154 398l-48 85h-70v38h233v-28l-43 -60l-257 -632h-42l-280 651z" />
    <glyph glyph-name="W" unicode="W" horiz-adv-x="964" 
d="M12 682v28h310v-38h-79l-33 -42l149 -441h2l93 268l-84 225v28h227v-28l-33 -85l138 -408h2l126 372l-48 111h-58v38h232v-28l-37 -55l-246 -637h-42l-149 394l-152 -394h-42l-246 653z" />
    <glyph glyph-name="X" unicode="X" horiz-adv-x="670" 
d="M7 0v28l58 54l195 262l-200 294l-46 44v28h294v-38h-57v-45l119 -175l111 157l-42 63h-46v38h238v-28l-60 -54l-167 -224l218 -318l55 -58v-28h-292v38h53v46l-143 209l-133 -189l51 -66h50v-38h-256z" />
    <glyph glyph-name="Y" unicode="Y" horiz-adv-x="658" 
d="M10 682v28h305v-38h-49l-37 -42l155 -245h2l123 212l-56 75h-42v38h231v-28l-43 -42l-190 -311v-249l47 -42h49v-38h-336v38h48l49 42v224l-215 336z" />
    <glyph glyph-name="Z" unicode="Z" horiz-adv-x="584" 
d="M28 0v28l348 630v2h-165l-109 -180h-28v243h30l35 -13h401v-28l-338 -630v-2h191l111 180h28v-230h-504z" />
    <glyph glyph-name="bracketleft" unicode="[" horiz-adv-x="307" 
d="M90 -38v786h195v-38h-132v-710h132v-38h-195z" />
    <glyph glyph-name="backslash" unicode="\" horiz-adv-x="448" 
d="M23 710h58l342 -710h-58z" />
    <glyph glyph-name="bracketright" unicode="]" horiz-adv-x="307" 
d="M22 0h132v710h-132v38h195v-786h-195v38z" />
    <glyph glyph-name="asciicircum" unicode="^" horiz-adv-x="475" 
d="M38 303l169 420h60l170 -420h-69l-132 336l-128 -336h-70z" />
    <glyph glyph-name="underscore" unicode="_" horiz-adv-x="614" 
d="M61 -85h492v-56h-492v56z" />
    <glyph glyph-name="grave" unicode="`" horiz-adv-x="220" 
d="M-22 619v104l264 -131v-28z" />
    <glyph glyph-name="a" unicode="a" horiz-adv-x="512" 
d="M31 114q0 74 60 119t158 58l52 6v86q0 71 -52 71q-23 0 -39.5 -18.5t-16.5 -47.5v-56h-128q-6 10 -6 39q0 42 33.5 73.5t75.5 45t82 13.5q186 0 186 -143v-300l29 -32h26v-28l-197 -10l11 75h-2q-36 -42 -69 -60t-75 -18q-52 0 -90 29t-38 98zM170 134q0 -28 12.5 -47
t32.5 -19q45 0 86 47v133l-22 -4q-51 -11 -80 -41t-29 -69z" />
    <glyph glyph-name="b" unicode="b" horiz-adv-x="563" 
d="M5 682v28l191 10v-275h2q24 19 39.5 29.5t40 19.5t50.5 9q93 0 146.5 -68t53.5 -172q0 -119 -65 -197.5t-179 -78.5q-55 0 -99.5 9.5t-67 19.5t-54.5 29v605l-29 32h-29zM198 106q35 -67 93 -67q46 0 71.5 45.5t25.5 136.5q0 94 -27.5 147.5t-78.5 53.5q-43 0 -84 -32
v-284z" />
    <glyph glyph-name="c" unicode="c" horiz-adv-x="482" 
d="M34 236q0 112 66 189.5t184 77.5q57 0 109 -29.5t52 -80.5q0 -25 -10 -49h-130v41q0 65 -47 65q-37 0 -66.5 -40t-29.5 -127q0 -90 43 -134.5t97 -44.5q84 0 133 72l23 -10q-55 -179 -202 -179q-101 0 -161.5 74t-60.5 175z" />
    <glyph glyph-name="d" unicode="d" horiz-adv-x="588" 
d="M35 227q0 119 65 197.5t179 78.5q45 0 86 -18v155l-29 32h-51v38l215 10v-650l29 -32h45v-38l-209 -10l11 75h-2q-63 -78 -139 -78q-93 0 -146.5 68t-53.5 172zM175 269q0 -94 27.5 -147.5t78.5 -53.5q40 0 84 42v274q-35 67 -93 67q-46 0 -71.5 -45.5t-25.5 -136.5z" />
    <glyph glyph-name="e" unicode="e" horiz-adv-x="485" 
d="M34 236q0 109 63.5 188t159.5 79q84 0 134 -45t50 -108v-47l-12 -12h-272v-8q0 -91 41.5 -135t101.5 -44q93 0 140 74l23 -10q-56 -181 -207 -181q-105 0 -163.5 73t-58.5 176zM161 340h157v37q0 73 -65 73q-32 0 -57.5 -26t-34.5 -84z" />
    <glyph glyph-name="f" unicode="f" horiz-adv-x="350" 
d="M29 0v38h32l28 32v372l-60 15v33h58v6q0 116 49.5 171.5t139.5 55.5q72 0 109 -32.5t37 -67.5q0 -20 -8 -39h-108v25q0 65 -44 65q-38 0 -38 -65v-119h117v-43h-117v-377l30 -32h40v-38h-265z" />
    <glyph glyph-name="g" unicode="g" horiz-adv-x="513" 
d="M36 -136q0 23 16.5 42t62.5 56q-27 7 -48 29.5t-21 54.5q0 40 32 75l53 58q-35 23 -60 60t-25 82q0 79 59 130.5t142 51.5q45 0 94 -13h162v-27l-90 -42q26 -35 26 -102q0 -74 -58.5 -120t-139.5 -46q-63 0 -85 13v-96l165 28q31 6 52 6q48 -1 74.5 -33.5t26.5 -91.5
q0 -47 -27.5 -84.5t-71.5 -59t-92 -32.5t-94 -11q-153 0 -153 72zM144 -38v-22q0 -46 26 -65.5t89 -19.5q68 0 106 28t38 75v4h-259zM174 353q0 -71 25 -109.5t62 -38.5q29 0 41.5 18t12.5 63q0 74 -25 119t-61 45q-55 0 -55 -97z" />
    <glyph glyph-name="h" unicode="h" horiz-adv-x="603" 
d="M20 0v38h36l29 32v570l-29 32h-36v38l200 10v-300h2q67 83 146 83q73 0 112 -42.5t39 -113.5v-277l30 -32h35v-38h-262v38h34l28 32v263q0 87 -68 87q-43 0 -96 -55v-295l28 -32h33v-38h-261z" />
    <glyph glyph-name="i" unicode="i" horiz-adv-x="316" 
d="M25 452v38l203 10v-430l30 -32h44v-38h-276v38h39l28 32v350l-29 32h-39zM90 635q0 32 21.5 53.5t53.5 21.5q31 0 52.5 -21.5t21.5 -53.5q0 -31 -21.5 -52.5t-52.5 -21.5q-32 0 -53.5 21.5t-21.5 52.5z" />
    <glyph glyph-name="j" unicode="j" horiz-adv-x="296" 
d="M-36 -105h126v525l-29 32h-46v38l210 10v-500q0 -88 -41.5 -148t-104.5 -60q-73 0 -115 68v35zM84 635q0 32 21.5 53.5t53.5 21.5q31 0 52.5 -21.5t21.5 -53.5q0 -31 -21.5 -52.5t-52.5 -21.5q-32 0 -53.5 21.5t-21.5 52.5z" />
    <glyph glyph-name="k" unicode="k" horiz-adv-x="546" 
d="M23 0v38h31l29 32v570l-29 32h-31v38l193 10v-430h2l82 75v125h198v-22l-174 -144l223 -296v-28h-234v38h50v19l-145 190h-2v-177l30 -32h26v-38h-249z" />
    <glyph glyph-name="l" unicode="l" horiz-adv-x="310" 
d="M19 0v38h39l28 32v570l-29 32h-38v38l202 10v-650l30 -32h44v-38h-276z" />
    <glyph glyph-name="m" unicode="m" horiz-adv-x="888" 
d="M27 0v38h36l29 32v350l-29 32h-36v38l200 10l-8 -86h2q24 41 66.5 65t82.5 24q95 0 139 -89q28 44 69 66.5t81 22.5q72 0 108 -41.5t36 -114.5v-277l30 -32h35v-38h-256v38h28l28 32v263q0 87 -53 87q-47 0 -100 -55v-295l30 -32h26v-38h-247v38h28l28 32v271
q0 79 -51 79q-49 0 -102 -55v-295l28 -32h28v-38h-256z" />
    <glyph glyph-name="n" unicode="n" horiz-adv-x="610" 
d="M27 0v38h36l29 32v350l-29 32h-36v38l200 10l-8 -87h2q59 90 153 90q73 0 112.5 -42t39.5 -114v-277l30 -32h35v-38h-262v38h34l28 32v263q0 87 -69 87q-42 0 -95 -55v-295l28 -32h33v-38h-261z" />
    <glyph glyph-name="o" unicode="o" horiz-adv-x="556" 
d="M34 249q0 110 68.5 182t174.5 72q108 0 176.5 -70.5t68.5 -184.5q0 -111 -69 -186t-173 -75q-110 0 -178 73.5t-68 188.5zM179 282q0 -54 12 -107.5t39 -94t63 -40.5q48 0 65.5 45t17.5 125q0 55 -10.5 107t-37 92.5t-64.5 40.5q-85 0 -85 -168z" />
    <glyph glyph-name="p" unicode="p" horiz-adv-x="583" 
d="M23 -157h32l28 32v545l-29 32h-31v38l195 10l-11 -75h2q63 78 139 78q93 0 146.5 -68t53.5 -172q0 -119 -65 -197.5t-179 -78.5q-45 0 -86 18v-130l30 -32h50v-38h-275v38zM218 106q35 -67 93 -67q46 0 71.5 45.5t25.5 136.5q0 94 -27.5 147.5t-78.5 53.5q-40 0 -84 -42
v-274z" />
    <glyph glyph-name="q" unicode="q" horiz-adv-x="571" 
d="M35 227q0 119 65 197.5t179 78.5q79 0 139 -19l82 16v-625l28 -32h40v-38h-285v38h52l32 32v180h-2q-31 -35 -61 -51.5t-69 -16.5q-93 0 -146.5 68t-53.5 172zM175 269q0 -94 27.5 -147.5t78.5 -53.5q43 0 84 32v284q-35 67 -93 67q-46 0 -71.5 -45.5t-25.5 -136.5z" />
    <glyph glyph-name="r" unicode="r" horiz-adv-x="412" 
d="M30 0v38h31l29 32v350l-29 32h-31v38l169 10l-10 -131h4q62 134 152 134q35 0 46 -13v-147h-169v-273l28 -32h59v-38h-279z" />
    <glyph glyph-name="s" unicode="s" horiz-adv-x="435" 
d="M47 370q0 62 48 97.5t118 35.5q31 0 75 -7l29 -6h47v-172h-30l-12 26q-51 111 -127 111q-23 0 -36 -13.5t-13 -35.5t19 -40.5t47 -31t61 -31t61 -38.5t47 -55t19 -79q0 -67 -49 -105.5t-112 -38.5q-40 0 -96 6q-29 3 -47 7h-46v190h30l20 -34q36 -60 70.5 -88.5
t81.5 -28.5q50 0 50 45q0 29 -26.5 52t-64 41.5t-74.5 41t-63.5 61t-26.5 90.5z" />
    <glyph glyph-name="t" unicode="t" horiz-adv-x="333" 
d="M28 457v33l144 132h38v-132h114v-43h-114v-371h114v-11q-50 -78 -139 -78q-53 0 -81.5 31.5t-28.5 89.5v334z" />
    <glyph glyph-name="u" unicode="u" horiz-adv-x="595" 
d="M22 452v38l193 10v-343q0 -87 65 -87q27 0 45.5 12.5t47.5 42.5v295l-29 32h-31v38l195 10v-430l29 -32h43v-38l-207 -10l8 92h-2q-69 -95 -153 -95q-69 0 -107.5 42.5t-38.5 113.5v277l-29 32h-29z" />
    <glyph glyph-name="v" unicode="v" horiz-adv-x="536" 
d="M20 462v28h253v-38h-39l-28 -42l108 -257h4l98 246l-40 53h-38v38h180v-28l-28 -30l-193 -442h-61l-187 439z" />
    <glyph glyph-name="w" unicode="w" horiz-adv-x="790" 
d="M16 462v28h233v-38h-27l-28 -22l107 -266h4l64 150l-65 148v28h200v-38l-27 -49l97 -240h4l89 236l-41 53h-38v38h180v-28l-28 -30l-174 -442h-61l-109 259l-103 -259h-61l-187 439z" />
    <glyph glyph-name="x" unicode="x" horiz-adv-x="525" 
d="M15 0v27l45 33l142 170l-142 196l-44 36v28h235v-38h-37v-32l81 -110l73 91l-38 51h-29v38h198v-28l-44 -32l-136 -153l159 -216l41 -33v-28h-241v38h43v29l-95 130l-84 -107l37 -52h34v-38h-198z" />
    <glyph glyph-name="y" unicode="y" horiz-adv-x="559" 
d="M19 462v28h263v-38h-55l-27 -32l121 -341h2l108 299l-30 74h-50v38h186v-28l-28 -30l-192 -516q-47 -124 -137 -124q-69 0 -114 69v50h184l-203 517z" />
    <glyph glyph-name="z" unicode="z" horiz-adv-x="472" 
d="M28 0v32l248 418v2h-110l-83 -135h-28v173h373v-32l-248 -418v-2h136l87 142h28v-180h-403z" />
    <glyph glyph-name="braceleft" unicode="{" horiz-adv-x="330" 
d="M27 216v85q43 2 61 27.5t18 84.5v167q0 93 40.5 135t94.5 42q50 0 81 -14l-11 -33q-34 9 -53 9q-83 0 -83 -155v-167q0 -35 -10.5 -62t-27.5 -41.5t-29 -21.5t-24 -10v-5q11 -3 24 -10.5t29.5 -22.5t27 -42.5t10.5 -62.5v-168q0 -156 83 -156q26 0 53 10l11 -34
q-31 -14 -81 -14q-53 0 -94 43t-41 134v169q0 59 -18.5 85t-60.5 28z" />
    <glyph glyph-name="bar" unicode="|" horiz-adv-x="247" 
d="M92 0v710h63v-710h-63z" />
    <glyph glyph-name="braceright" unicode="}" horiz-adv-x="330" 
d="M8 -229l11 34q27 -10 53 -10q83 0 83 156v168q0 35 10.5 62.5t27 42.5t29.5 22.5t24 10.5v5q-12 3 -24 10t-29 21.5t-27.5 41.5t-10.5 62v167q0 155 -83 155q-19 0 -53 -9l-11 33q31 14 81 14q54 0 94.5 -42t40.5 -135v-167q0 -59 18 -84.5t61 -27.5v-85
q-42 -2 -60.5 -28t-18.5 -85v-169q0 -91 -41 -134t-94 -43q-50 0 -81 14z" />
    <glyph glyph-name="asciitilde" unicode="~" horiz-adv-x="630" 
d="M65 289q78 45 144 45q35 0 102.5 -20.5t103.5 -20.5q63 0 123 36l28 -48q-70 -46 -148 -46q-34 0 -101 21t-102 21q-57 0 -123 -35z" />
    <glyph glyph-name="uni00A0" unicode="&#xa0;" horiz-adv-x="244" 
 />
    <glyph glyph-name="exclamdown" unicode="&#xa1;" horiz-adv-x="294" 
d="M79 -13v219l49 293h37l49 -293v-219h-135zM79 642q0 29 19.5 48.5t48.5 19.5t48.5 -19.5t19.5 -48.5t-19.5 -48.5t-48.5 -19.5t-48.5 19.5t-19.5 48.5z" />
    <glyph glyph-name="cent" unicode="&#xa2;" horiz-adv-x="499" 
d="M40 236q0 95 48.5 167t137.5 93v44h63v-37h1q57 0 109 -29.5t52 -80.5q0 -25 -10 -49h-120v41q0 49 -38 62v-341q16 -2 25 -2q84 0 133 72l23 -10q-49 -161 -175 -177v-39h-63v40q-85 14 -135.5 84.5t-50.5 161.5zM162 283q0 -103 64 -151v307q-64 -37 -64 -156z" />
    <glyph glyph-name="sterling" unicode="&#xa3;" horiz-adv-x="619" 
d="M49 0v47q29 15 46.5 40.5t29.5 87t12 161.5h-85v56h85v118q0 94 63.5 153.5t160.5 59.5q82 0 138 -37.5t56 -113.5q0 -21 -8 -35h-131v20q0 106 -80 106q-37 0 -52 -34.5t-15 -101.5v-135h184v-56h-183v-61.5t-3 -43.5t-4.5 -29.5t-9.5 -22t-12.5 -18t-20 -20.5
t-24.5 -26l6 -6q46 54 97 54q36 0 96 -34.5t80 -34.5q36 0 84 38l24 -22q-26 -51 -69 -87t-77 -36q-30 0 -81 26t-82 26q-77 0 -129 -39h-96z" />
    <glyph glyph-name="currency" unicode="&#xa4;" horiz-adv-x="529" 
d="M52 510l37 34l62 -62q45 37 114 37q66 0 114 -37l63 63l34 -37l-62 -62q37 -45 37 -114q0 -66 -37 -114l63 -63l-37 -34l-62 62q-45 -37 -114 -37q-66 0 -114 37l-63 -63l-34 37l62 62q-37 45 -37 114q0 66 37 114zM150 332q0 -48 33 -83t81 -35t81 35t33 83t-33 82.5
t-81 34.5t-81 -34.5t-33 -82.5z" />
    <glyph glyph-name="yen" unicode="&#xa5;" horiz-adv-x="698" 
d="M30 682v28h305v-38h-49l-37 -42l155 -245h2l123 212l-56 75h-42v38h231v-28l-43 -42l-149 -243h128v-56h-162l-7 -12v-71h169v-56h-169v-122l47 -42h49v-38h-336v38h48l49 42v122h-150v56h150v46l-24 37h-126v56h90l-155 243z" />
    <glyph glyph-name="brokenbar" unicode="&#xa6;" horiz-adv-x="247" 
d="M92 0v290h63v-290h-63zM92 420v290h63v-290h-63z" />
    <glyph glyph-name="section" unicode="&#xa7;" horiz-adv-x="594" 
d="M64 277q0 74 56 128q-40 50 -40 127q0 79 64.5 135t168.5 56q79 0 151 -33l16 29h29v-250h-40l-8 25q-27 82 -73 130t-105 48q-52 0 -76.5 -27.5t-24.5 -61.5q0 -46 37.5 -72t91 -40.5t106.5 -34t90.5 -67t37.5 -124.5q0 -80 -51 -133q35 -52 35 -122q0 -89 -63 -143.5
t-155 -54.5q-16 0 -32 1.5t-28 2.5t-26.5 4.5t-22 5.5t-21.5 7t-18 6.5t-17.5 7t-14.5 6.5l-30 -37h-30v276h30l24 -49q37 -77 91 -122.5t115 -45.5q106 0 106 84q0 32 -20.5 54t-53.5 35t-73 24.5t-79.5 27t-72.5 38t-53.5 63t-20.5 96.5zM166 328q0 -40 30 -66t69 -36.5
t93.5 -28.5t87.5 -40q7 14 7 37q0 48 -43 73t-121 47t-117 46q-6 -17 -6 -32z" />
    <glyph glyph-name="dieresis" unicode="&#xa8;" horiz-adv-x="220" 
d="M-62 642q0 29 19.5 48.5t48.5 19.5t48.5 -19.5t19.5 -48.5t-19.5 -48.5t-48.5 -19.5t-48.5 19.5t-19.5 48.5zM145 642q0 29 19.5 48.5t48.5 19.5t48.5 -19.5t19.5 -48.5t-19.5 -48.5t-48.5 -19.5t-48.5 19.5t-19.5 48.5z" />
    <glyph glyph-name="copyright" unicode="&#xa9;" horiz-adv-x="824" 
d="M44 355q0 152 108 260t260 108t260 -108t108 -260t-108 -260t-260 -108t-260 108t-108 260zM86 355q0 -136 95.5 -233t230.5 -97t230.5 97t95.5 233q0 135 -96 232.5t-230 97.5t-230 -97.5t-96 -232.5zM211 351q0 96 58.5 156t157.5 60q25 0 56 -3t58 -3h21v-134h-40
l-11 25q-18 40 -36.5 56t-46.5 16q-46 0 -75 -33.5t-29 -98.5t37 -101.5t89 -36.5q31 0 55.5 11.5t35.5 23t26 31.5l28 -17q-61 -159 -182 -159q-82 0 -142 57.5t-60 149.5z" />
    <glyph glyph-name="ordfeminine" unicode="&#xaa;" horiz-adv-x="511" 
d="M44 407q0 103 187 138l56 13v56q0 34 -9.5 49.5t-38.5 15.5q-50 0 -50 -70v-40l-111 -1q-11 19 -11 39q0 40 31.5 68t70 38t79.5 10q86 0 126 -33.5t40 -83.5v-233l29 -32h31v-28l-194 -10l11 85h-2q-40 -46 -71.5 -67t-73.5 -21q-41 0 -70.5 25t-29.5 82zM178 412
q0 -37 27 -37q41 0 82 53v88l-23 -10q-44 -19 -65 -39.5t-21 -54.5z" />
    <glyph glyph-name="guillemotleft" unicode="&#xab;" horiz-adv-x="505" 
d="M44 230v28l185 192h25l-89 -207l89 -208h-25zM244 230v28l185 192h25l-89 -207l89 -208h-25z" />
    <glyph glyph-name="logicalnot" unicode="&#xac;" horiz-adv-x="403" 
d="M67 266v50h270v-130h-50v80h-220z" />
    <glyph glyph-name="uni00AD" unicode="&#xad;" horiz-adv-x="334" 
d="M57 261v50h220v-50h-220z" />
    <glyph glyph-name="registered" unicode="&#xae;" horiz-adv-x="824" 
d="M44 355q0 152 108 260t260 108t260 -108t108 -260t-108 -260t-260 -108t-260 108t-108 260zM86 355q0 -136 95.5 -233t230.5 -97t230.5 97t95.5 233q0 135 -96 232.5t-230 97.5t-230 -97.5t-96 -232.5zM200 154v38h27l28 32v263l-28 32h-27v38h229q93 0 133 -23.5
t40 -77.5q0 -48 -40.5 -73.5t-99.5 -32.5v-2l84 -20l78 -152v-22h-142l-61 147q-10 28 -39 28h-2v-105l18 -32h30v-38h-228zM380 373h14q34 0 55 20t21 55q0 65 -77 65h-13v-140z" />
    <glyph glyph-name="overscore" unicode="&#xaf;" horiz-adv-x="220" 
d="M0 660v50h220v-50h-220z" />
    <glyph glyph-name="degree" unicode="&#xb0;" horiz-adv-x="332" 
d="M42 586q0 51 36.5 87.5t87.5 36.5t87.5 -36.5t36.5 -87.5t-36.5 -87.5t-87.5 -36.5t-87.5 36.5t-36.5 87.5zM103 586q0 -27 18 -46t45 -19t45 19t18 46t-18 46t-45 19t-45 -19t-18 -46z" />
    <glyph glyph-name="plusminus" unicode="&#xb1;" horiz-adv-x="542" 
d="M61 0v56h420v-56h-420zM61 322v56h181v183h58v-183h181v-56h-181v-191h-58v191h-181z" />
    <glyph glyph-name="uni00B2" unicode="&#xb2;" horiz-adv-x="446" 
d="M57 320v50q114 97 147 132q64 70 64 126q0 28 -12 41.5t-31 13.5q-37 0 -37 -55v-56h-119q-7 12 -7 31q0 51 49 85.5t119 34.5q151 0 151 -104q0 -55 -47.5 -99.5t-140.5 -90.5v-2h142l41 55h22l-30 -162h-311z" />
    <glyph glyph-name="uni00B3" unicode="&#xb3;" horiz-adv-x="407" 
d="M36 426l25 9q22 -23 52.5 -37t54.5 -14q31 0 52.5 18.5t21.5 50.5q0 59 -63 59h-51v20l96 75v2h-165l22 114h10l35 -13h230v-61l-133 -97h12q55 0 87 -32.5t32 -89.5q0 -58 -43 -94t-119 -36q-54 0 -91 30t-65 96z" />
    <glyph glyph-name="acute" unicode="&#xb4;" horiz-adv-x="220" 
d="M-22 564v28l264 131v-104z" />
    <glyph glyph-name="uni00B5" unicode="&#xb5;" horiz-adv-x="641" 
d="M45 462v28l193 10v-343q0 -87 65 -87q27 0 45.5 12.5t47.5 42.5v305l-29 32h-31v28l195 10v-440l29 -32h43v-28l-207 -10l8 92h-2q-69 -95 -153 -95q-2 0 -6 0.5t-5 0.5v-183h-135v625l-29 32h-29z" />
    <glyph glyph-name="paragraph" unicode="&#xb6;" horiz-adv-x="601" 
d="M32 513q0 81 57 139t138 58h341v-38h-112v-672h-63v672h-93v-672h-63v317h-10q-81 0 -138 57.5t-57 138.5z" />
    <glyph glyph-name="middot" unicode="&#xb7;" horiz-adv-x="266" 
d="M53 350q0 33 23.5 56.5t56.5 23.5t56.5 -23.5t23.5 -56.5t-23.5 -56.5t-56.5 -23.5t-56.5 23.5t-23.5 56.5z" />
    <glyph glyph-name="cedilla" unicode="&#xb8;" horiz-adv-x="220" 
d="M15 -191l24 51q38 -16 65 -16q37 0 37 29q0 32 -44 32h-31l-7 6l42 101h51l-22 -67h14q98 0 98 -69q0 -42 -36.5 -63t-96.5 -21q-41 0 -94 17z" />
    <glyph glyph-name="uni00B9" unicode="&#xb9;" horiz-adv-x="406" 
d="M56 320v38h54l40 42v203l-90 -43v45l195 115h22v-320l40 -42h53v-38h-314z" />
    <glyph glyph-name="ordmasculine" unicode="&#xba;" horiz-adv-x="486" 
d="M38 515q0 89 58.5 148.5t145.5 59.5q89 0 147.5 -58t58.5 -151q0 -91 -58.5 -152.5t-144.5 -61.5q-92 0 -149.5 60.5t-57.5 154.5zM165 537q0 -71 23 -130t67 -59q65 0 65 140q0 70 -22.5 129t-65.5 59q-67 0 -67 -139z" />
    <glyph glyph-name="guillemotright" unicode="&#xbb;" horiz-adv-x="505" 
d="M51 35l89 208l-89 207h25l185 -192v-28l-185 -195h-25zM251 35l89 208l-89 207h25l185 -192v-28l-185 -195h-25z" />
    <glyph glyph-name="onequarter" unicode="&#xbc;" horiz-adv-x="884" 
d="M42 320v38h54l40 42v203l-90 -43v45l195 115h22v-320l40 -42h53v-38h-314zM176 0l547 710h73l-543 -710h-77zM523 76v29q58 86 88.5 144t54.5 141h167l-251 -270v-2h67l109 116h18v-116h70v-42h-70v-76h-127v76h-126z" />
    <glyph glyph-name="onehalf" unicode="&#xbd;" horiz-adv-x="941" 
d="M44 320v38h54l40 42v203l-90 -43v45l195 115h22v-320l40 -42h53v-38h-314zM178 0l547 710h73l-543 -710h-77zM566 0v50q114 97 147 132q64 70 64 126q0 28 -12 41.5t-31 13.5q-37 0 -37 -55v-56h-119q-7 12 -7 31q0 51 49 85.5t119 34.5q151 0 151 -104
q0 -55 -47.5 -99.5t-140.5 -90.5v-2h142l41 55h22l-30 -162h-311z" />
    <glyph glyph-name="threequarters" unicode="&#xbe;" horiz-adv-x="907" 
d="M33 426l25 9q22 -23 52.5 -37t54.5 -14q31 0 52.5 18.5t21.5 50.5q0 59 -63 59h-51v20l96 75v2h-165l22 114h10l35 -13h230v-61l-133 -97h12q55 0 87 -32.5t32 -89.5q0 -58 -43 -94t-119 -36q-54 0 -91 30t-65 96zM195 0l547 710h73l-543 -710h-77zM542 76v29
q58 86 88.5 144t54.5 141h167l-251 -270v-2h67l109 116h18v-116h70v-42h-70v-76h-127v76h-126z" />
    <glyph glyph-name="questiondown" unicode="&#xbf;" horiz-adv-x="456" 
d="M32 126q0 45 22.5 81t55 63t64.5 56.5t54.5 74.5t22.5 102v9h34q14 -33 14 -75q0 -46 -20.5 -93.5t-44.5 -81t-44.5 -77.5t-20.5 -84q0 -31 14.5 -51t45.5 -20t45.5 20.5t14.5 50.5v57h124q6 -10 6 -39q0 -42 -33.5 -73.5t-75.5 -45t-82 -13.5q-196 0 -196 139zM194 655
q0 29 19.5 48.5t48.5 19.5t48.5 -19.5t19.5 -48.5t-19.5 -48.5t-48.5 -19.5t-48.5 19.5t-19.5 48.5z" />
    <glyph glyph-name="Agrave" unicode="&#xc0;" horiz-adv-x="714" 
d="M12 0v28l56 72l214 592l115 58h10l248 -670l54 -52v-28h-315v38h69l30 42l-52 151h-264l-43 -124l29 -69h85v-38h-236zM195 281h228l-113 328zM228 819v104l264 -131v-28z" />
    <glyph glyph-name="Aacute" unicode="&#xc1;" horiz-adv-x="714" 
d="M12 0v28l56 72l214 592l115 58h10l248 -670l54 -52v-28h-315v38h69l30 42l-52 151h-264l-43 -124l29 -69h85v-38h-236zM195 281h228l-113 328zM228 764v28l264 131v-104z" />
    <glyph glyph-name="Acircumflex" unicode="&#xc2;" horiz-adv-x="714" 
d="M12 0v28l56 72l214 592l115 58h10l248 -670l54 -52v-28h-315v38h69l30 42l-52 151h-264l-43 -124l29 -69h85v-38h-236zM195 281h228l-113 328zM200 764v28l160 131l160 -131v-28l-160 55z" />
    <glyph glyph-name="Atilde" unicode="&#xc3;" horiz-adv-x="714" 
d="M12 0v28l56 72l214 592l115 58h10l248 -670l54 -52v-28h-315v38h69l30 42l-52 151h-264l-43 -124l29 -69h85v-38h-236zM192 844q53 79 115 79q27 0 63 -19.5t52 -19.5q39 0 77 36l29 -28q-50 -77 -115 -77q-25 0 -58.5 19.5t-56.5 19.5q-39 0 -77 -36zM195 281h228
l-113 328z" />
    <glyph glyph-name="Adieresis" unicode="&#xc4;" horiz-adv-x="714" 
d="M12 0v28l56 72l214 592l115 58h10l248 -670l54 -52v-28h-315v38h69l30 42l-52 151h-264l-43 -124l29 -69h85v-38h-236zM189 842q0 29 19.5 48.5t48.5 19.5t48.5 -19.5t19.5 -48.5t-19.5 -48.5t-48.5 -19.5t-48.5 19.5t-19.5 48.5zM195 281h228l-113 328zM396 842
q0 29 19.5 48.5t48.5 19.5t48.5 -19.5t19.5 -48.5t-19.5 -48.5t-48.5 -19.5t-48.5 19.5t-19.5 48.5z" />
    <glyph glyph-name="Aring" unicode="&#xc5;" horiz-adv-x="714" 
d="M12 0v28l56 72l214 592l115 58h10l248 -670l54 -52v-28h-315v38h69l30 42l-52 151h-264l-43 -124l29 -69h85v-38h-236zM195 281h228l-113 328zM279 841q0 35 23.5 58.5t57.5 23.5q35 0 58.5 -23.5t23.5 -58.5q0 -34 -23.5 -57.5t-58.5 -23.5q-34 0 -57.5 23.5t-23.5 57.5
zM320 841q0 -17 11.5 -28.5t28.5 -11.5q18 0 30 11.5t12 28.5q0 18 -12 30t-30 12q-17 0 -28.5 -12t-11.5 -30z" />
    <glyph glyph-name="AE" unicode="&#xc6;" horiz-adv-x="992" 
d="M-8 0v28l452 618l-24 26h-61v38h560v-210h-18l-112 160h-187v-263h78l92 150h18v-350h-18l-92 150h-78v-297h185l157 170h18l-45 -220h-558v38h61l39 42v151h-254l-95 -131l35 -62h73v-38h-226zM241 281h218v299z" />
    <glyph glyph-name="Ccedilla" unicode="&#xc7;" horiz-adv-x="705" 
d="M41 354q0 157 96 263t252 106q113 0 201 -41l25 37h30v-256h-40l-15 34q-77 174 -216 174q-84 0 -141 -76t-57 -197q0 -125 69 -210t178 -85q131 0 216 119l38 -14q-15 -36 -39 -71.5t-60 -72t-88 -58t-111 -19.5q-2 0 -5.5 0.5t-4.5 0.5l-14 -43h14q98 0 98 -69
q0 -42 -36.5 -63t-96.5 -21q-41 0 -94 17l24 51q38 -16 65 -16q37 0 37 29q0 32 -44 32h-31l-7 6l33 81q-127 21 -201.5 122t-74.5 240z" />
    <glyph glyph-name="Egrave" unicode="&#xc8;" horiz-adv-x="665" 
d="M32 0v38h61l39 42v550l-39 42h-61v38h560v-210h-18l-112 160h-187v-263h78l92 150h18v-350h-18l-92 150h-78v-297h185l157 170h18l-45 -220h-558zM196 819v104l264 -131v-28z" />
    <glyph glyph-name="Eacute" unicode="&#xc9;" horiz-adv-x="665" 
d="M32 0v38h61l39 42v550l-39 42h-61v38h560v-210h-18l-112 160h-187v-263h78l92 150h18v-350h-18l-92 150h-78v-297h185l157 170h18l-45 -220h-558zM196 764v28l264 131v-104z" />
    <glyph glyph-name="Ecircumflex" unicode="&#xca;" horiz-adv-x="665" 
d="M32 0v38h61l39 42v550l-39 42h-61v38h560v-210h-18l-112 160h-187v-263h78l92 150h18v-350h-18l-92 150h-78v-297h185l157 170h18l-45 -220h-558zM168 764v28l160 131l160 -131v-28l-160 55z" />
    <glyph glyph-name="Edieresis" unicode="&#xcb;" horiz-adv-x="665" 
d="M32 0v38h61l39 42v550l-39 42h-61v38h560v-210h-18l-112 160h-187v-263h78l92 150h18v-350h-18l-92 150h-78v-297h185l157 170h18l-45 -220h-558zM157 842q0 29 19.5 48.5t48.5 19.5t48.5 -19.5t19.5 -48.5t-19.5 -48.5t-48.5 -19.5t-48.5 19.5t-19.5 48.5zM364 842
q0 29 19.5 48.5t48.5 19.5t48.5 -19.5t19.5 -48.5t-19.5 -48.5t-48.5 -19.5t-48.5 19.5t-19.5 48.5z" />
    <glyph glyph-name="Igrave" unicode="&#xcc;" horiz-adv-x="412" 
d="M32 0v38h61l39 42v550l-39 42h-61v38h348v-38h-62l-38 -42v-550l38 -42h62v-38h-348zM74 819v104l264 -131v-28z" />
    <glyph glyph-name="Iacute" unicode="&#xcd;" horiz-adv-x="412" 
d="M32 0v38h61l39 42v550l-39 42h-61v38h348v-38h-62l-38 -42v-550l38 -42h62v-38h-348zM74 764v28l264 131v-104z" />
    <glyph glyph-name="Icircumflex" unicode="&#xce;" horiz-adv-x="412" 
d="M32 0v38h61l39 42v550l-39 42h-61v38h348v-38h-62l-38 -42v-550l38 -42h62v-38h-348zM46 764v28l160 131l160 -131v-28l-160 55z" />
    <glyph glyph-name="Idieresis" unicode="&#xcf;" horiz-adv-x="412" 
d="M32 0v38h61l39 42v550l-39 42h-61v38h348v-38h-62l-38 -42v-550l38 -42h62v-38h-348zM34 842q0 29 19.5 48.5t48.5 19.5t48.5 -19.5t19.5 -48.5t-19.5 -48.5t-48.5 -19.5t-48.5 19.5t-19.5 48.5zM241 842q0 29 19.5 48.5t48.5 19.5t48.5 -19.5t19.5 -48.5t-19.5 -48.5
t-48.5 -19.5t-48.5 19.5t-19.5 48.5z" />
    <glyph glyph-name="Eth" unicode="&#xd0;" horiz-adv-x="751" 
d="M33 353v50h101v227l-39 42h-61v38h319q179 0 267.5 -92.5t88.5 -254.5q0 -152 -107 -257.5t-251 -105.5h-317v38h61l39 42v273h-101zM257 353h20v-270q8 -6 24 -11q24 -11 65 -11q101 0 143 64t42 203q0 145 -54.5 238.5t-148.5 93.5q-29 0 -53 -8q-16 -7 -18 -8v-241
h-20v-50zM277 353v50h176v-50h-176z" />
    <glyph glyph-name="Ntilde" unicode="&#xd1;" horiz-adv-x="780" 
d="M23 0v38h69l41 63v485l-71 96v28h172l359 -475h2v375l-47 62h-71v38h284v-38h-67l-43 -62v-620h-55l-405 534h-2v-423l47 -63h71v-38h-284zM224 844q53 79 115 79q27 0 63 -19.5t52 -19.5q39 0 77 36l29 -28q-50 -77 -115 -77q-25 0 -58.5 19.5t-56.5 19.5q-39 0 -77 -36
z" />
    <glyph glyph-name="Ograve" unicode="&#xd2;" 
d="M41 354q0 157 96 263t252 106q154 0 251 -106t97 -261q0 -157 -96 -263t-252 -106q-154 0 -251 106t-97 261zM195 427q0 -161 64.5 -269.5t169.5 -108.5q73 0 113.5 60t40.5 174q0 103 -26.5 189t-79 139.5t-121.5 53.5q-74 0 -117.5 -62.5t-43.5 -175.5zM257 819v104
l264 -131v-28z" />
    <glyph glyph-name="Oacute" unicode="&#xd3;" 
d="M41 354q0 157 96 263t252 106q154 0 251 -106t97 -261q0 -157 -96 -263t-252 -106q-154 0 -251 106t-97 261zM195 427q0 -161 64.5 -269.5t169.5 -108.5q73 0 113.5 60t40.5 174q0 103 -26.5 189t-79 139.5t-121.5 53.5q-74 0 -117.5 -62.5t-43.5 -175.5zM257 764v28
l264 131v-104z" />
    <glyph glyph-name="Ocircumflex" unicode="&#xd4;" 
d="M41 354q0 157 96 263t252 106q154 0 251 -106t97 -261q0 -157 -96 -263t-252 -106q-154 0 -251 106t-97 261zM195 427q0 -161 64.5 -269.5t169.5 -108.5q73 0 113.5 60t40.5 174q0 103 -26.5 189t-79 139.5t-121.5 53.5q-74 0 -117.5 -62.5t-43.5 -175.5zM229 764v28
l160 131l160 -131v-28l-160 55z" />
    <glyph glyph-name="Otilde" unicode="&#xd5;" 
d="M41 354q0 157 96 263t252 106q154 0 251 -106t97 -261q0 -157 -96 -263t-252 -106q-154 0 -251 106t-97 261zM195 427q0 -161 64.5 -269.5t169.5 -108.5q73 0 113.5 60t40.5 174q0 103 -26.5 189t-79 139.5t-121.5 53.5q-74 0 -117.5 -62.5t-43.5 -175.5zM221 844
q53 79 115 79q28 0 64 -19.5t51 -19.5q39 0 77 36l29 -28q-50 -77 -115 -77q-25 0 -58.5 19.5t-56.5 19.5q-39 0 -77 -36z" />
    <glyph glyph-name="Odieresis" unicode="&#xd6;" 
d="M41 354q0 157 96 263t252 106q154 0 251 -106t97 -261q0 -157 -96 -263t-252 -106q-154 0 -251 106t-97 261zM195 427q0 -161 64.5 -269.5t169.5 -108.5q73 0 113.5 60t40.5 174q0 103 -26.5 189t-79 139.5t-121.5 53.5q-74 0 -117.5 -62.5t-43.5 -175.5zM217 842
q0 29 19.5 48.5t48.5 19.5t48.5 -19.5t19.5 -48.5t-19.5 -48.5t-48.5 -19.5t-48.5 19.5t-19.5 48.5zM424 842q0 29 19.5 48.5t48.5 19.5t48.5 -19.5t19.5 -48.5t-19.5 -48.5t-48.5 -19.5t-48.5 19.5t-19.5 48.5z" />
    <glyph glyph-name="multiply" unicode="&#xd7;" horiz-adv-x="517" 
d="M48 99l166 176l-166 175l47 48l164 -176l165 174l46 -44l-166 -174l167 -177l-45 -45l-167 175l-166 -174z" />
    <glyph glyph-name="Oslash" unicode="&#xd8;" 
d="M41 354q0 157 96 263t252 106q107 0 189 -54l28 41h68l-52 -75q115 -107 115 -279q0 -157 -96 -263t-252 -106q-101 0 -182 49l-25 -36h-68l48 69q-121 107 -121 285zM195 427q0 -139 48 -240l267 384q-62 94 -154 94q-74 0 -117.5 -62.5t-43.5 -175.5zM275 134
q63 -85 154 -85q73 0 113.5 60t40.5 174q0 133 -43 233z" />
    <glyph glyph-name="Ugrave" unicode="&#xd9;" horiz-adv-x="772" 
d="M12 672v38h357v-38h-69l-40 -42v-349q0 -120 33.5 -175.5t127.5 -55.5q183 0 183 242v318l-47 62h-74v38h277v-38h-59l-41 -62v-317q0 -65 -13 -118t-40.5 -96.5t-77 -67.5t-117.5 -24q-148 0 -224 66.5t-76 214.5v362l-41 42h-59zM294 819v104l264 -131v-28z" />
    <glyph glyph-name="Uacute" unicode="&#xda;" horiz-adv-x="772" 
d="M12 672v38h357v-38h-69l-40 -42v-349q0 -120 33.5 -175.5t127.5 -55.5q183 0 183 242v318l-47 62h-74v38h277v-38h-59l-41 -62v-317q0 -65 -13 -118t-40.5 -96.5t-77 -67.5t-117.5 -24q-148 0 -224 66.5t-76 214.5v362l-41 42h-59zM284 764v28l264 131v-104z" />
    <glyph glyph-name="Ucircumflex" unicode="&#xdb;" horiz-adv-x="772" 
d="M12 672v38h357v-38h-69l-40 -42v-349q0 -120 33.5 -175.5t127.5 -55.5q183 0 183 242v318l-47 62h-74v38h277v-38h-59l-41 -62v-317q0 -65 -13 -118t-40.5 -96.5t-77 -67.5t-117.5 -24q-148 0 -224 66.5t-76 214.5v362l-41 42h-59zM256 764v28l160 131l160 -131v-28
l-160 55z" />
    <glyph glyph-name="Udieresis" unicode="&#xdc;" horiz-adv-x="772" 
d="M12 672v38h357v-38h-69l-40 -42v-349q0 -120 33.5 -175.5t127.5 -55.5q183 0 183 242v318l-47 62h-74v38h277v-38h-59l-41 -62v-317q0 -65 -13 -118t-40.5 -96.5t-77 -67.5t-117.5 -24q-148 0 -224 66.5t-76 214.5v362l-41 42h-59zM254 842q0 29 19.5 48.5t48.5 19.5
t48.5 -19.5t19.5 -48.5t-19.5 -48.5t-48.5 -19.5t-48.5 19.5t-19.5 48.5zM461 842q0 29 19.5 48.5t48.5 19.5t48.5 -19.5t19.5 -48.5t-19.5 -48.5t-48.5 -19.5t-48.5 19.5t-19.5 48.5z" />
    <glyph glyph-name="Yacute" unicode="&#xdd;" horiz-adv-x="658" 
d="M10 682v28h305v-38h-49l-37 -42l155 -245h2l123 212l-56 75h-42v38h231v-28l-43 -42l-190 -311v-249l47 -42h49v-38h-336v38h48l49 42v224l-215 336zM204 764v28l264 131v-104z" />
    <glyph glyph-name="Thorn" unicode="&#xde;" horiz-adv-x="632" 
d="M32 0v38h61l39 42v550l-39 42h-61v38h348v-38h-62l-38 -42v-55h67q129 0 196 -42t67 -141q0 -90 -74.5 -149t-183.5 -59h-36v35h28q50 0 84 42.5t34 120.5q0 69 -33.5 101t-74.5 32q-38 0 -74 -15v-420l38 -42h62v-38h-348z" />
    <glyph glyph-name="germandbls" unicode="&#xdf;" horiz-adv-x="650" 
d="M29 0v38h32l28 32v372l-60 15v33h58v6q0 112 67 169.5t162 57.5q97 0 173.5 -44.5t76.5 -108.5q0 -67 -57 -124h-46q-29 0 -49 -13t-20 -40q0 -26 24.5 -44.5t59 -33.5t69 -34t59 -56.5t24.5 -90.5q0 -70 -46.5 -108.5t-97.5 -38.5q-83 0 -134 45l-22 -42h-26v190h40
l18 -30q25 -42 63.5 -71t73.5 -29q42 0 42 40q0 23 -24.5 41.5t-59.5 35.5t-70 37.5t-59.5 57t-24.5 85.5q0 54 33.5 93t89.5 51v61q0 56 -31 89t-78 33q-46 0 -69.5 -32t-23.5 -108v-534h-195z" />
    <glyph glyph-name="agrave" unicode="&#xe0;" horiz-adv-x="512" 
d="M31 114q0 74 60 119t158 58l52 6v86q0 71 -52 71q-23 0 -39.5 -18.5t-16.5 -47.5v-56h-128q-6 10 -6 39q0 42 33.5 73.5t75.5 45t82 13.5q186 0 186 -143v-300l29 -32h26v-28l-197 -10l11 75h-2q-36 -42 -69 -60t-75 -18q-52 0 -90 29t-38 98zM122 619v104l264 -131v-28z
M170 134q0 -28 12.5 -47t32.5 -19q45 0 86 47v133l-22 -4q-51 -11 -80 -41t-29 -69z" />
    <glyph glyph-name="aacute" unicode="&#xe1;" horiz-adv-x="512" 
d="M31 114q0 74 60 119t158 58l52 6v86q0 71 -52 71q-23 0 -39.5 -18.5t-16.5 -47.5v-56h-128q-6 10 -6 39q0 42 33.5 73.5t75.5 45t82 13.5q186 0 186 -143v-300l29 -32h26v-28l-197 -10l11 75h-2q-36 -42 -69 -60t-75 -18q-52 0 -90 29t-38 98zM122 564v28l264 131v-104z
M170 134q0 -28 12.5 -47t32.5 -19q45 0 86 47v133l-22 -4q-51 -11 -80 -41t-29 -69z" />
    <glyph glyph-name="acircumflex" unicode="&#xe2;" horiz-adv-x="512" 
d="M31 114q0 74 60 119t158 58l52 6v86q0 71 -52 71q-23 0 -39.5 -18.5t-16.5 -47.5v-56h-128q-6 10 -6 39q0 42 33.5 73.5t75.5 45t82 13.5q186 0 186 -143v-300l29 -32h26v-28l-197 -10l11 75h-2q-36 -42 -69 -60t-75 -18q-52 0 -90 29t-38 98zM94 564v28l160 131
l160 -131v-28l-160 55zM170 134q0 -28 12.5 -47t32.5 -19q45 0 86 47v133l-22 -4q-51 -11 -80 -41t-29 -69z" />
    <glyph glyph-name="atilde" unicode="&#xe3;" horiz-adv-x="512" 
d="M31 114q0 74 60 119t158 58l52 6v86q0 71 -52 71q-23 0 -39.5 -18.5t-16.5 -47.5v-56h-128q-6 10 -6 39q0 42 33.5 73.5t75.5 45t82 13.5q186 0 186 -143v-300l29 -32h26v-28l-197 -10l11 75h-2q-36 -42 -69 -60t-75 -18q-52 0 -90 29t-38 98zM86 644q53 79 115 79
q28 0 63.5 -19.5t51.5 -19.5q39 0 77 36l29 -28q-50 -77 -115 -77q-25 0 -58.5 19.5t-56.5 19.5q-39 0 -77 -36zM170 134q0 -28 12.5 -47t32.5 -19q45 0 86 47v133l-22 -4q-51 -11 -80 -41t-29 -69z" />
    <glyph glyph-name="adieresis" unicode="&#xe4;" horiz-adv-x="512" 
d="M31 114q0 74 60 119t158 58l52 6v86q0 71 -52 71q-23 0 -39.5 -18.5t-16.5 -47.5v-56h-128q-6 10 -6 39q0 42 33.5 73.5t75.5 45t82 13.5q186 0 186 -143v-300l29 -32h26v-28l-197 -10l11 75h-2q-36 -42 -69 -60t-75 -18q-52 0 -90 29t-38 98zM82 642q0 29 19.5 48.5
t48.5 19.5t48.5 -19.5t19.5 -48.5t-19.5 -48.5t-48.5 -19.5t-48.5 19.5t-19.5 48.5zM170 134q0 -28 12.5 -47t32.5 -19q45 0 86 47v133l-22 -4q-51 -11 -80 -41t-29 -69zM289 642q0 29 19.5 48.5t48.5 19.5t48.5 -19.5t19.5 -48.5t-19.5 -48.5t-48.5 -19.5t-48.5 19.5
t-19.5 48.5z" />
    <glyph glyph-name="aring" unicode="&#xe5;" horiz-adv-x="512" 
d="M31 114q0 74 60 119t158 58l52 6v86q0 71 -52 71q-23 0 -39.5 -18.5t-16.5 -47.5v-56h-128q-6 10 -6 39q0 42 33.5 73.5t75.5 45t82 13.5q186 0 186 -143v-300l29 -32h26v-28l-197 -10l11 75h-2q-36 -42 -69 -60t-75 -18q-52 0 -90 29t-38 98zM170 134q0 -28 12.5 -47
t32.5 -19q45 0 86 47v133l-22 -4q-51 -11 -80 -41t-29 -69zM172 641q0 35 23.5 58.5t57.5 23.5q35 0 58.5 -23.5t23.5 -58.5q0 -34 -23.5 -57.5t-58.5 -23.5q-34 0 -57.5 23.5t-23.5 57.5zM213 641q0 -17 11.5 -28.5t28.5 -11.5q18 0 30 11.5t12 28.5q0 18 -12 30t-30 12
q-17 0 -28.5 -12t-11.5 -30z" />
    <glyph glyph-name="ae" unicode="&#xe6;" horiz-adv-x="760" 
d="M31 114q0 74 60.5 122t157.5 60l52 6v81q0 71 -52 71q-23 0 -39.5 -18.5t-16.5 -47.5v-56h-128q-6 10 -6 39q0 42 33.5 73.5t75.5 45t82 13.5q111 0 151 -50q58 50 131 50q84 0 134 -45t50 -108v-47l-12 -12h-272v-8q0 -91 41.5 -135t101.5 -44q93 0 140 74l23 -10
q-56 -181 -207 -181q-127 0 -187 106q-39 -53 -89.5 -79.5t-95.5 -26.5q-52 0 -90 29t-38 98zM170 134q0 -28 12.5 -47t32.5 -19q45 0 86 47v132l-22 -4q-51 -11 -80 -40.5t-29 -68.5zM436 340h157v37q0 73 -65 73q-32 0 -57.5 -26t-34.5 -84z" />
    <glyph glyph-name="ccedilla" unicode="&#xe7;" horiz-adv-x="482" 
d="M34 236q0 112 66 189.5t184 77.5q57 0 109 -29.5t52 -80.5q0 -25 -10 -49h-130v41q0 65 -47 65q-37 0 -66.5 -40t-29.5 -127q0 -90 43 -134.5t97 -44.5q84 0 133 72l23 -10q-55 -175 -199 -179l-14 -42h14q98 0 98 -69q0 -42 -36.5 -63t-96.5 -21q-41 0 -94 17l24 51
q38 -16 65 -16q37 0 37 29q0 32 -44 32h-31l-7 6l34 81q-81 17 -127.5 86t-46.5 158z" />
    <glyph glyph-name="egrave" unicode="&#xe8;" horiz-adv-x="485" 
d="M34 236q0 109 63.5 188t159.5 79q84 0 134 -45t50 -108v-47l-12 -12h-272v-8q0 -91 41.5 -135t101.5 -44q93 0 140 74l23 -10q-56 -181 -207 -181q-105 0 -163.5 73t-58.5 176zM124 619v104l264 -131v-28zM161 340h157v37q0 73 -65 73q-32 0 -57.5 -26t-34.5 -84z" />
    <glyph glyph-name="eacute" unicode="&#xe9;" horiz-adv-x="485" 
d="M34 236q0 109 63.5 188t159.5 79q84 0 134 -45t50 -108v-47l-12 -12h-272v-8q0 -91 41.5 -135t101.5 -44q93 0 140 74l23 -10q-56 -181 -207 -181q-105 0 -163.5 73t-58.5 176zM124 564v28l264 131v-104zM161 340h157v37q0 73 -65 73q-32 0 -57.5 -26t-34.5 -84z" />
    <glyph glyph-name="ecircumflex" unicode="&#xea;" horiz-adv-x="485" 
d="M34 236q0 109 63.5 188t159.5 79q84 0 134 -45t50 -108v-47l-12 -12h-272v-8q0 -91 41.5 -135t101.5 -44q93 0 140 74l23 -10q-56 -181 -207 -181q-105 0 -163.5 73t-58.5 176zM96 564v28l160 131l160 -131v-28l-160 55zM161 340h157v37q0 73 -65 73q-32 0 -57.5 -26
t-34.5 -84z" />
    <glyph glyph-name="edieresis" unicode="&#xeb;" horiz-adv-x="485" 
d="M34 236q0 109 63.5 188t159.5 79q84 0 134 -45t50 -108v-47l-12 -12h-272v-8q0 -91 41.5 -135t101.5 -44q93 0 140 74l23 -10q-56 -181 -207 -181q-105 0 -163.5 73t-58.5 176zM85 642q0 29 19.5 48.5t48.5 19.5t48.5 -19.5t19.5 -48.5t-19.5 -48.5t-48.5 -19.5
t-48.5 19.5t-19.5 48.5zM161 340h157v37q0 73 -65 73q-32 0 -57.5 -26t-34.5 -84zM292 642q0 29 19.5 48.5t48.5 19.5t48.5 -19.5t19.5 -48.5t-19.5 -48.5t-48.5 -19.5t-48.5 19.5t-19.5 48.5z" />
    <glyph glyph-name="igrave" unicode="&#xec;" horiz-adv-x="316" 
d="M25 452v38l203 10v-430l30 -32h44v-38h-276v38h39l28 32v350l-29 32h-39zM28 619v104l264 -131v-28z" />
    <glyph glyph-name="iacute" unicode="&#xed;" horiz-adv-x="316" 
d="M25 452v38l203 10v-430l30 -32h44v-38h-276v38h39l28 32v350l-29 32h-39zM28 564v28l264 131v-104z" />
    <glyph glyph-name="icircumflex" unicode="&#xee;" horiz-adv-x="316" 
d="M0 564v28l160 131l160 -131v-28l-160 55zM25 452v38l203 10v-430l30 -32h44v-38h-276v38h39l28 32v350l-29 32h-39z" />
    <glyph glyph-name="idieresis" unicode="&#xef;" horiz-adv-x="316" 
d="M-11 642q0 29 19.5 48.5t48.5 19.5t48.5 -19.5t19.5 -48.5t-19.5 -48.5t-48.5 -19.5t-48.5 19.5t-19.5 48.5zM25 452v38l203 10v-430l30 -32h44v-38h-276v38h39l28 32v350l-29 32h-39zM196 642q0 29 19.5 48.5t48.5 19.5t48.5 -19.5t19.5 -48.5t-19.5 -48.5t-48.5 -19.5
t-48.5 19.5t-19.5 48.5z" />
    <glyph glyph-name="eth" unicode="&#xf0;" horiz-adv-x="551" 
d="M37 218q0 104 61.5 164.5t161.5 60.5q58 0 96 -20h2q-23 61 -60 112l-85 -21v50l51 12q-57 64 -135 109v38q123 -49 212 -128l132 33v-50l-91 -23q68 -74 100.5 -157t32.5 -154q0 -106 -69 -181.5t-177 -75.5q-95 0 -163.5 66t-68.5 165zM187 193q0 -83 19 -118t60 -35
q45 0 72.5 60t27.5 144q0 146 -81 146q-47 0 -72.5 -57.5t-25.5 -139.5z" />
    <glyph glyph-name="ntilde" unicode="&#xf1;" horiz-adv-x="610" 
d="M27 0v38h36l29 32v350l-29 32h-36v38l200 10l-8 -87h2q59 90 153 90q73 0 112.5 -42t39.5 -114v-277l30 -32h35v-38h-262v38h34l28 32v263q0 87 -69 87q-42 0 -95 -55v-295l28 -32h33v-38h-261zM137 644q53 79 115 79q28 0 64 -19.5t51 -19.5q39 0 77 36l29 -28
q-50 -77 -115 -77q-25 0 -58.5 19.5t-56.5 19.5q-39 0 -77 -36z" />
    <glyph glyph-name="ograve" unicode="&#xf2;" horiz-adv-x="556" 
d="M34 249q0 110 68.5 182t174.5 72q108 0 176.5 -70.5t68.5 -184.5q0 -111 -69 -186t-173 -75q-110 0 -178 73.5t-68 188.5zM146 619v104l264 -131v-28zM179 282q0 -54 12 -107.5t39 -94t63 -40.5q48 0 65.5 45t17.5 125q0 55 -10.5 107t-37 92.5t-64.5 40.5
q-85 0 -85 -168z" />
    <glyph glyph-name="oacute" unicode="&#xf3;" horiz-adv-x="556" 
d="M34 249q0 110 68.5 182t174.5 72q108 0 176.5 -70.5t68.5 -184.5q0 -111 -69 -186t-173 -75q-110 0 -178 73.5t-68 188.5zM146 564v28l264 131v-104zM179 282q0 -54 12 -107.5t39 -94t63 -40.5q48 0 65.5 45t17.5 125q0 55 -10.5 107t-37 92.5t-64.5 40.5q-85 0 -85 -168
z" />
    <glyph glyph-name="ocircumflex" unicode="&#xf4;" horiz-adv-x="556" 
d="M34 249q0 110 68.5 182t174.5 72q108 0 176.5 -70.5t68.5 -184.5q0 -111 -69 -186t-173 -75q-110 0 -178 73.5t-68 188.5zM118 564v28l160 131l160 -131v-28l-160 55zM179 282q0 -54 12 -107.5t39 -94t63 -40.5q48 0 65.5 45t17.5 125q0 55 -10.5 107t-37 92.5
t-64.5 40.5q-85 0 -85 -168z" />
    <glyph glyph-name="otilde" unicode="&#xf5;" horiz-adv-x="556" 
d="M34 249q0 110 68.5 182t174.5 72q108 0 176.5 -70.5t68.5 -184.5q0 -111 -69 -186t-173 -75q-110 0 -178 73.5t-68 188.5zM110 644q53 79 115 79q28 0 63.5 -19.5t51.5 -19.5q39 0 77 36l29 -28q-50 -77 -115 -77q-25 0 -58.5 19.5t-56.5 19.5q-39 0 -77 -36zM179 282
q0 -54 12 -107.5t39 -94t63 -40.5q48 0 65.5 45t17.5 125q0 55 -10.5 107t-37 92.5t-64.5 40.5q-85 0 -85 -168z" />
    <glyph glyph-name="odieresis" unicode="&#xf6;" horiz-adv-x="556" 
d="M34 249q0 110 68.5 182t174.5 72q108 0 176.5 -70.5t68.5 -184.5q0 -111 -69 -186t-173 -75q-110 0 -178 73.5t-68 188.5zM106 642q0 29 19.5 48.5t48.5 19.5t48.5 -19.5t19.5 -48.5t-19.5 -48.5t-48.5 -19.5t-48.5 19.5t-19.5 48.5zM179 282q0 -54 12 -107.5t39 -94
t63 -40.5q48 0 65.5 45t17.5 125q0 55 -10.5 107t-37 92.5t-64.5 40.5q-85 0 -85 -168zM313 642q0 29 19.5 48.5t48.5 19.5t48.5 -19.5t19.5 -48.5t-19.5 -48.5t-48.5 -19.5t-48.5 19.5t-19.5 48.5z" />
    <glyph glyph-name="divide" unicode="&#xf7;" horiz-adv-x="596" 
d="M53 252v56h490v-56h-490zM229 435q0 28 19.5 48t48.5 20t48.5 -20t19.5 -48q0 -29 -19.5 -49t-48.5 -20t-48.5 20t-19.5 49zM230 126q0 28 19.5 48t48.5 20t48.5 -20t19.5 -48q0 -29 -19.5 -49t-48.5 -20t-48.5 20t-19.5 49z" />
    <glyph glyph-name="oslash" unicode="&#xf8;" horiz-adv-x="555" 
d="M33 249q0 110 68.5 182t174.5 72q66 0 123 -30l21 30h67l-44 -61q78 -72 78 -194q0 -111 -69 -186t-173 -75q-78 0 -136 37l-17 -24h-67l43 60q-69 74 -69 189zM178 282q0 -53 11 -101l150 209q-33 60 -76 60q-85 0 -85 -168zM209 116q33 -76 83 -76q48 0 65.5 45
t17.5 125q0 68 -14 118z" />
    <glyph glyph-name="ugrave" unicode="&#xf9;" horiz-adv-x="595" 
d="M22 452v38l193 10v-343q0 -87 65 -87q27 0 45.5 12.5t47.5 42.5v295l-29 32h-31v38l195 10v-430l29 -32h43v-38l-207 -10l8 92h-2q-69 -95 -153 -95q-69 0 -107.5 42.5t-38.5 113.5v277l-29 32h-29zM172 619v104l264 -131v-28z" />
    <glyph glyph-name="uacute" unicode="&#xfa;" horiz-adv-x="595" 
d="M22 452v38l193 10v-343q0 -87 65 -87q27 0 45.5 12.5t47.5 42.5v295l-29 32h-31v38l195 10v-430l29 -32h43v-38l-207 -10l8 92h-2q-69 -95 -153 -95q-69 0 -107.5 42.5t-38.5 113.5v277l-29 32h-29zM172 564v28l264 131v-104z" />
    <glyph glyph-name="ucircumflex" unicode="&#xfb;" horiz-adv-x="595" 
d="M22 452v38l193 10v-343q0 -87 65 -87q27 0 45.5 12.5t47.5 42.5v295l-29 32h-31v38l195 10v-430l29 -32h43v-38l-207 -10l8 92h-2q-69 -95 -153 -95q-69 0 -107.5 42.5t-38.5 113.5v277l-29 32h-29zM144 564v28l160 131l160 -131v-28l-160 55z" />
    <glyph glyph-name="udieresis" unicode="&#xfc;" horiz-adv-x="595" 
d="M22 452v38l193 10v-343q0 -87 65 -87q27 0 45.5 12.5t47.5 42.5v295l-29 32h-31v38l195 10v-430l29 -32h43v-38l-207 -10l8 92h-2q-69 -95 -153 -95q-69 0 -107.5 42.5t-38.5 113.5v277l-29 32h-29zM132 642q0 29 19.5 48.5t48.5 19.5t48.5 -19.5t19.5 -48.5t-19.5 -48.5
t-48.5 -19.5t-48.5 19.5t-19.5 48.5zM339 642q0 29 19.5 48.5t48.5 19.5t48.5 -19.5t19.5 -48.5t-19.5 -48.5t-48.5 -19.5t-48.5 19.5t-19.5 48.5z" />
    <glyph glyph-name="yacute" unicode="&#xfd;" horiz-adv-x="559" 
d="M19 462v28h263v-38h-55l-27 -32l121 -341h2l108 299l-30 74h-50v38h186v-28l-28 -30l-192 -516q-47 -124 -137 -124q-69 0 -114 69v50h184l-203 517zM184 564v28l264 131v-104z" />
    <glyph glyph-name="thorn" unicode="&#xfe;" horiz-adv-x="568" 
d="M1 672v38l202 10v-285q61 68 130 68q93 0 146.5 -68t53.5 -172q0 -119 -65 -197.5t-179 -78.5q-45 0 -86 18v-130l30 -32h50v-38h-275v38h32l28 32v765l-29 32h-38zM203 106q35 -67 93 -67q46 0 71.5 45.5t25.5 136.5q0 94 -27.5 147.5t-78.5 53.5q-40 0 -84 -42v-274z
" />
    <glyph glyph-name="ydieresis" unicode="&#xff;" horiz-adv-x="559" 
d="M19 462v28h263v-38h-55l-27 -32l121 -341h2l108 299l-30 74h-50v38h186v-28l-28 -30l-192 -516q-47 -124 -137 -124q-69 0 -114 69v50h184l-203 517zM145 642q0 29 19.5 48.5t48.5 19.5t48.5 -19.5t19.5 -48.5t-19.5 -48.5t-48.5 -19.5t-48.5 19.5t-19.5 48.5zM352 642
q0 29 19.5 48.5t48.5 19.5t48.5 -19.5t19.5 -48.5t-19.5 -48.5t-48.5 -19.5t-48.5 19.5t-19.5 48.5z" />
    <glyph glyph-name="OE" unicode="&#x152;" horiz-adv-x="998" 
d="M43 347q0 152 107 257.5t251 105.5h524v-210h-18l-112 160h-187v-263h78l92 150h18v-350h-18l-92 150h-78v-297h185l157 170h18l-45 -220h-524q-179 0 -267.5 92.5t-88.5 254.5zM201 382q0 -145 54.5 -238.5t148.5 -93.5q26 0 48 8q12 7 13 8v561q-8 6 -19 11
q-29 11 -60 11q-101 0 -143 -64t-42 -203z" />
    <glyph glyph-name="oe" unicode="&#x153;" horiz-adv-x="885" 
d="M34 249q0 110 68.5 182t174.5 72q134 0 203 -104q64 104 177 104q84 0 134 -45t50 -108v-47l-12 -12h-272v-8q0 -91 41.5 -135t101.5 -44q93 0 140 74l23 -10q-56 -181 -207 -181q-123 0 -183 100q-68 -100 -193 -100q-110 0 -178 73.5t-68 188.5zM177 277
q0 -55 11 -106.5t38.5 -91t66.5 -39.5q23 0 39.5 10t25 24.5t13.5 40t6 46.5t1 54q0 40 -6 79t-18.5 75t-35.5 58.5t-54 22.5q-50 0 -68.5 -46.5t-18.5 -126.5zM561 340h157v37q0 73 -65 73q-32 0 -57.5 -26t-34.5 -84z" />
    <glyph glyph-name="Ydieresis" unicode="&#x178;" horiz-adv-x="658" 
d="M10 682v28h305v-38h-49l-37 -42l155 -245h2l123 212l-56 75h-42v38h231v-28l-43 -42l-190 -311v-249l47 -42h49v-38h-336v38h48l49 42v224l-215 336zM164 842q0 29 19.5 48.5t48.5 19.5t48.5 -19.5t19.5 -48.5t-19.5 -48.5t-48.5 -19.5t-48.5 19.5t-19.5 48.5zM371 842
q0 29 19.5 48.5t48.5 19.5t48.5 -19.5t19.5 -48.5t-19.5 -48.5t-48.5 -19.5t-48.5 19.5t-19.5 48.5z" />
    <glyph glyph-name="circumflex" unicode="&#x2c6;" horiz-adv-x="220" 
d="M-50 564v28l160 131l160 -131v-28l-160 55z" />
    <glyph glyph-name="tilde" unicode="&#x2dc;" horiz-adv-x="220" 
d="M-58 644q53 79 115 79q27 0 63 -19.5t52 -19.5q39 0 77 36l29 -28q-50 -77 -115 -77q-25 0 -58.5 19.5t-56.5 19.5q-39 0 -77 -36z" />
    <glyph glyph-name="uni2000" unicode="&#x2000;" horiz-adv-x="461" 
 />
    <glyph glyph-name="uni2001" unicode="&#x2001;" horiz-adv-x="923" 
 />
    <glyph glyph-name="uni2002" unicode="&#x2002;" horiz-adv-x="461" 
 />
    <glyph glyph-name="uni2003" unicode="&#x2003;" horiz-adv-x="923" 
 />
    <glyph glyph-name="uni2004" unicode="&#x2004;" horiz-adv-x="308" 
 />
    <glyph glyph-name="uni2005" unicode="&#x2005;" horiz-adv-x="230" 
 />
    <glyph glyph-name="uni2006" unicode="&#x2006;" horiz-adv-x="154" 
 />
    <glyph glyph-name="uni2007" unicode="&#x2007;" horiz-adv-x="154" 
 />
    <glyph glyph-name="uni2008" unicode="&#x2008;" horiz-adv-x="115" 
 />
    <glyph glyph-name="uni2009" unicode="&#x2009;" horiz-adv-x="185" 
 />
    <glyph glyph-name="uni200A" unicode="&#x200a;" horiz-adv-x="51" 
 />
    <glyph glyph-name="uni2010" unicode="&#x2010;" horiz-adv-x="342" 
d="M61 266v50h220v-50h-220z" />
    <glyph glyph-name="uni2011" unicode="&#x2011;" horiz-adv-x="342" 
d="M61 266v50h220v-50h-220z" />
    <glyph glyph-name="figuredash" unicode="&#x2012;" horiz-adv-x="342" 
d="M61 266v50h220v-50h-220z" />
    <glyph glyph-name="endash" unicode="&#x2013;" horiz-adv-x="522" 
d="M61 266v50h400v-50h-400z" />
    <glyph glyph-name="emdash" unicode="&#x2014;" horiz-adv-x="1022" 
d="M61 266v50h900v-50h-900z" />
    <glyph glyph-name="quoteleft" unicode="&#x2018;" horiz-adv-x="232" 
d="M45 543q0 60 35.5 108.5t96.5 71.5l8 -21q-33 -13 -58.5 -42.5t-25.5 -64.5q37 -1 59 -20t22 -48t-19 -48.5t-48 -19.5q-31 0 -50.5 22t-19.5 62z" />
    <glyph glyph-name="quoteright" unicode="&#x2019;" horiz-adv-x="235" 
d="M56 480q33 13 58.5 42.5t25.5 64.5q-37 1 -59 20t-22 48t19 48.5t48 19.5q31 0 50.5 -22t19.5 -62q0 -60 -35.5 -108.5t-96.5 -71.5z" />
    <glyph glyph-name="quotesinglbase" unicode="&#x201a;" horiz-adv-x="242" 
d="M49 -120q33 13 58.5 42.5t25.5 64.5q-37 1 -59 20t-22 48t19 48.5t48 19.5q31 0 50.5 -22t19.5 -62q0 -60 -35.5 -108.5t-96.5 -71.5z" />
    <glyph glyph-name="quotedblleft" unicode="&#x201c;" horiz-adv-x="437" 
d="M45 543q0 60 35.5 108.5t96.5 71.5l8 -21q-33 -13 -58.5 -42.5t-25.5 -64.5q37 -1 59 -20t22 -48t-19 -48.5t-48 -19.5q-31 0 -50.5 22t-19.5 62zM250 543q0 60 35.5 108.5t96.5 71.5l8 -21q-33 -13 -58.5 -42.5t-25.5 -64.5q37 -1 59 -20t22 -48t-19 -48.5t-48 -19.5
q-31 0 -50.5 22t-19.5 62z" />
    <glyph glyph-name="quotedblright" unicode="&#x201d;" horiz-adv-x="440" 
d="M56 480q33 13 58.5 42.5t25.5 64.5q-37 1 -59 20t-22 48t19 48.5t48 19.5q31 0 50.5 -22t19.5 -62q0 -60 -35.5 -108.5t-96.5 -71.5zM261 480q33 13 58.5 42.5t25.5 64.5q-37 1 -59 20t-22 48t19 48.5t48 19.5q31 0 50.5 -22t19.5 -62q0 -60 -35.5 -108.5t-96.5 -71.5z
" />
    <glyph glyph-name="quotedblbase" unicode="&#x201e;" horiz-adv-x="447" 
d="M49 -120q33 13 58.5 42.5t25.5 64.5q-37 1 -59 20t-22 48t19 48.5t48 19.5q31 0 50.5 -22t19.5 -62q0 -60 -35.5 -108.5t-96.5 -71.5zM254 -120q33 13 58.5 42.5t25.5 64.5q-37 1 -59 20t-22 48t19 48.5t48 19.5q31 0 50.5 -22t19.5 -62q0 -60 -35.5 -108.5t-96.5 -71.5z
" />
    <glyph glyph-name="bullet" unicode="&#x2022;" horiz-adv-x="352" 
d="M80 279q0 39 28 67t68 28t68 -28t28 -67q0 -40 -28 -68t-68 -28t-68 28t-28 68z" />
    <glyph glyph-name="ellipsis" unicode="&#x2026;" horiz-adv-x="721" 
d="M52 55q0 29 19.5 48.5t48.5 19.5t49 -19.5t20 -48.5t-20 -48.5t-49 -19.5t-48.5 19.5t-19.5 48.5zM292 55q0 29 19.5 48.5t48.5 19.5t48.5 -19.5t19.5 -48.5t-19.5 -48.5t-48.5 -19.5t-48.5 19.5t-19.5 48.5zM532 55q0 29 20 48.5t49 19.5t48.5 -19.5t19.5 -48.5
t-19.5 -48.5t-48.5 -19.5t-49 19.5t-20 48.5z" />
    <glyph glyph-name="uni202F" unicode="&#x202f;" horiz-adv-x="185" 
 />
    <glyph glyph-name="guilsinglleft" unicode="&#x2039;" horiz-adv-x="305" 
d="M44 230v28l185 192h25l-89 -207l89 -208h-25z" />
    <glyph glyph-name="guilsinglright" unicode="&#x203a;" horiz-adv-x="305" 
d="M51 35l89 208l-89 207h25l185 -192v-28l-185 -195h-25z" />
    <glyph glyph-name="uni205F" unicode="&#x205f;" horiz-adv-x="230" 
 />
    <glyph glyph-name="Euro" unicode="&#x20ac;" horiz-adv-x="758" 
d="M38 274v56h46v24q0 28 3 57h-49v56h61q31 115 119.5 185.5t213.5 70.5q113 0 201 -41l25 37h30v-256h-40l-15 34q-77 174 -216 174q-70 0 -123.5 -56t-69.5 -148h216v-56h-221v-13q0 -35 6 -68h185v-56h-170q27 -77 87 -124t139 -47q131 0 216 119l38 -14
q-15 -36 -39 -71.5t-60 -72t-88 -58t-111 -19.5q-133 0 -221 79.5t-110 207.5h-53z" />
    <glyph glyph-name="trademark" unicode="&#x2122;" horiz-adv-x="1165" 
d="M78 516v203h39l26 -9h274l27 9h39v-203h-28l-72 150h-41v-289l30 -32h55v-38h-293v38h55l28 32v289h-39l-72 -150h-28zM543 307v38h25l30 32v258l-19 37h-36v38h192l88 -222h2l87 222h189v-38h-36l-19 -37v-258l30 -32h25v-38h-238v38h30l28 32v222h-2l-116 -292h-34
l-120 292h-1v-222l28 -32h40v-38h-173z" />
    <glyph glyph-name="uniE000" unicode="&#xe000;" horiz-adv-x="490" 
d="M0 0v490h490v-490h-490z" />
    <glyph glyph-name="glyph1" horiz-adv-x="0" 
 />
  </font>
</defs>
</svg>
