<svg xmlns="http://www.w3.org/2000/svg" width="291.88" height="323.33" viewBox="0 0 291.88 323.33">
  <defs>
    <style>
      .cls-1 {
        fill: #ff7bac;
      }

      .cls-1, .cls-3 {
        stroke: #fff;
        stroke-miterlimit: 10;
      }

      .cls-2 {
        fill: #fff;
      }

      .cls-3 {
        fill: #231f20;
      }
    </style>
  </defs>
  <title>Asset 3</title>
  <g id="Layer_2" data-name="Layer 2">
    <g id="Layer_1-2" data-name="Layer 1">
      <path class="cls-1" d="M147.05,14.7C175.24-1.44,224.43-8.37,272,18.85c13.13,7.52,20.79,26.88,19.2,42.21-2.06,19.89-26.91,33-28.37,52.78-1.21,16.44,12.28,32.23,14.55,49.12,2.74,20.3-2.41,42.72-14,58.91-36.26,50.7-98.93,7.26-140.34,43.31C96.93,287.9,76.55,334,31.78,320.34c-36.87-11.26-35-78-25.22-107.35a113.94,113.94,0,0,1,69-70.85c23.83-8.73,35.09-2,34.24-29.51C108.6,74.94,112.11,38,147.05,14.7Z"/>
      <g>
        <circle class="cls-2" cx="141.76" cy="96.48" r="31.04"/>
        <circle class="cls-2" cx="236.66" cy="95.63" r="31.04"/>
        <path class="cls-3" d="M281.65,82.37l-4.2,1.88q.14,20.4-3.62,28.07-9.4,19.24-30.09,19.24-26.48,0-35.73-16.49-5.5-9.84-6.37-32.27l2.61-4.49q-4.5-3.76-11.73-3.76T180.8,78.32l2.61,4.49q-.87,22.43-6.37,32.27-9.27,16.49-35.74,16.49-20.69,0-30.09-19.24-3.76-7.67-3.61-28.07l-4.2-1.88V69.64q24.88-8.25,40.22-8.25t34.43,7.23A34.71,34.71,0,0,1,192.52,65,34.72,34.72,0,0,1,207,68.63q19.09-7.23,34.44-7.23t40.22,8.25ZM136.24,72a26.32,26.32,0,0,0-9.11.87q-4.34,1.44-5.36,1.88a10.59,10.59,0,0,0-3.9,4.05q-1.74,3.18-1.73,14.61a38.45,38.45,0,0,0,3.62,16.35,115.54,115.54,0,0,1,5.93-22.35A44,44,0,0,1,136.24,72Zm95.06,0a26.34,26.34,0,0,0-9.11.87c-2.89,1-4.68,1.59-5.36,1.88a10.57,10.57,0,0,0-3.9,4.05q-1.74,3.18-1.73,14.61a38.39,38.39,0,0,0,3.62,16.35,115.12,115.12,0,0,1,5.93-22.35A44.08,44.08,0,0,1,231.29,72Z"/>
      </g>
    </g>
  </g>
</svg>
